<svg width="21" height="16" viewBox="0 0 21 16" fill="none" xmlns="http://www.w3.org/2000/svg">
<path d="M8.30244 14.8243C8.21364 14.9136 8.10807 14.9844 7.99179 15.0328C7.87552 15.0811 7.75083 15.106 7.62489 15.106C7.49896 15.106 7.37427 15.0811 7.25799 15.0328C7.14172 14.9844 7.03615 14.9136 6.94735 14.8243L1.5366 9.41254C1.26711 9.14297 1.11572 8.7774 1.11572 8.39623C1.11572 8.01506 1.26711 7.64949 1.5366 7.37992L2.21414 6.70237C2.48372 6.43288 2.84928 6.28149 3.23046 6.28149C3.61163 6.28149 3.9772 6.43288 4.24677 6.70237L7.62489 10.0805L16.753 0.952374C17.0226 0.682885 17.3882 0.531494 17.7693 0.531494C18.1505 0.531494 18.5161 0.682885 18.7856 0.952374L19.4632 1.62992C19.7327 1.89949 19.8841 2.26506 19.8841 2.64623C19.8841 3.0274 19.7327 3.39297 19.4632 3.66254L8.30244 14.8243Z" stroke="url(#paint0_linear_1061_17657)"/>
<defs>
<linearGradient id="paint0_linear_1061_17657" x1="1.11572" y1="0.531494" x2="20.78" y2="1.86176" gradientUnits="userSpaceOnUse">
<stop stop-color="#4895FF"/>
<stop offset="0.317708" stop-color="#00FFCE"/>
<stop offset="0.671875" stop-color="#847BE7"/>
<stop offset="0.890625" stop-color="#D629F7"/>
<stop offset="1" stop-color="#FF00FF"/>
</linearGradient>
</defs>
</svg>
