<svg width="32" height="32" viewBox="0 0 32 32" fill="none" xmlns="http://www.w3.org/2000/svg">
<path d="M7.11156 12.6853L7.4001 12.2764L7.39219 12.271L7.11156 12.6853ZM9.62827 14.4348L9.34327 14.846L9.34328 14.846L9.62827 14.4348ZM5.67523 11.2673L6.07589 10.9676L6.07586 10.9676L5.67523 11.2673ZM5.50942 7.9955L5.11836 7.68335L5.11831 7.68342L5.50942 7.9955ZM26.4167 7.93418L26.0647 8.28984L26.0648 8.2899L26.4167 7.93418ZM26.3983 11.1751L25.9847 10.8934L25.9846 10.8936L26.3983 11.1751ZM24.9007 12.685L25.186 13.0961L25.1872 13.0953L24.9007 12.685ZM19.1552 16.675L18.8695 16.2643L18.8679 16.2654L19.1552 16.675ZM18.6334 17.0496L18.9267 17.455L18.9269 17.4549L18.6334 17.0496ZM17.9705 17.5162L18.25 17.9312L18.2502 17.9311L17.9705 17.5162ZM17.3322 17.9151L17.5862 18.3462L17.5867 18.3459L17.3322 17.9151ZM16.6263 18.2462L16.4687 17.7713L16.4677 17.7716L16.6263 18.2462ZM15.3738 18.2462L15.5324 17.7716L15.5313 17.7713L15.3738 18.2462ZM14.6678 17.9151L14.4137 18.3461L14.4138 18.3462L14.6678 17.9151ZM14.0293 17.5162L13.7495 17.931L13.7497 17.9311L14.0293 17.5162ZM13.3664 17.0496L13.6598 16.6442L13.6597 16.6441L13.3664 17.0496ZM12.8448 16.675L12.557 17.0843L12.5574 17.0846L12.8448 16.675ZM25.7721 13.9986L26.0526 14.4129L26.0545 14.4116L25.7721 13.9986ZM19.6585 18.2341L19.3651 17.8288L19.3618 17.8312L19.6585 18.2341ZM27 12.9305H27.5004V11.6227L26.6274 12.5965L27 12.9305ZM26.423 24.0654L26.0692 23.7116L26.0692 23.7117L26.423 24.0654ZM5.57698 24.0654L5.93087 23.7117L5.93077 23.7116L5.57698 24.0654ZM5 12.9305L5.37227 12.5962L4.49963 11.6246V12.9305H5ZM6.24008 13.9986L6.52132 13.5847L6.51745 13.5821L6.24008 13.9986ZM12.3416 18.2341L12.6384 17.8313L12.6375 17.8306L12.3416 18.2341ZM13.4771 19.0382L13.7533 18.621L13.7532 18.6209L13.4771 19.0382ZM14.6373 19.6274L14.8293 19.1653L14.8291 19.1652L14.6373 19.6274ZM17.3628 19.6274L17.171 19.1652L17.1707 19.1653L17.3628 19.6274ZM18.5229 19.0382L18.2469 18.6208L18.2468 18.6209L18.5229 19.0382ZM6.82307 13.0941C7.10355 13.2921 7.9446 13.8768 9.34327 14.846L9.91327 14.0235C8.5129 13.0531 7.67617 12.4713 7.40005 12.2765L6.82307 13.0941ZM5.27457 11.5671C5.75074 12.2036 6.26844 12.7185 6.83093 13.0996L7.39219 12.271C6.93996 11.9647 6.49979 11.5342 6.07589 10.9676L5.27457 11.5671ZM4.49963 9.59145C4.49963 10.2545 4.78822 10.9171 5.2746 11.5671L6.07586 10.9676C5.66207 10.4145 5.50037 9.95958 5.50037 9.59145H4.49963ZM5.11831 7.68342C4.69621 8.21241 4.49963 8.86011 4.49963 9.59145H5.50037C5.50037 9.04611 5.64341 8.62983 5.90053 8.30759L5.11831 7.68342ZM6.9642 6.85684C6.20878 6.85684 5.56859 7.1193 5.11836 7.68335L5.90048 8.30765C6.12957 8.02064 6.45929 7.85757 6.9642 7.85757V6.85684ZM25.0356 6.85684H6.9642V7.85757H25.0356V6.85684ZM26.7686 7.57853C26.2891 7.10396 25.7033 6.85684 25.0356 6.85684V7.85757C25.4316 7.85757 25.7667 7.99496 26.0647 8.28984L26.7686 7.57853ZM27.5003 9.32154C27.5003 8.64575 27.251 8.05575 26.7686 7.57847L26.0648 8.2899C26.3599 8.58189 26.4996 8.91682 26.4996 9.32154H27.5003ZM26.8118 11.4568C27.2637 10.7934 27.5003 10.0786 27.5003 9.32154H26.4996C26.4996 9.85745 26.3354 10.3786 25.9847 10.8934L26.8118 11.4568ZM25.1872 13.0953C25.8334 12.644 26.376 12.0972 26.8119 11.4565L25.9846 10.8936C25.6185 11.4315 25.1628 11.8917 24.6142 12.2748L25.1872 13.0953ZM19.441 17.0858C20.1936 16.5623 22.1087 15.2324 25.186 13.0961L24.6154 12.274C21.5382 14.4102 19.6226 15.7404 18.8695 16.2643L19.441 17.0858ZM18.9269 17.4549C19.1927 17.2624 19.3641 17.1397 19.4426 17.0846L18.8679 16.2654C18.7827 16.3252 18.6059 16.4517 18.34 16.6443L18.9269 17.4549ZM18.2502 17.9311C18.4326 17.8081 18.6584 17.6491 18.9267 17.455L18.3402 16.6441C18.0763 16.835 17.8604 16.987 17.6908 17.1013L18.2502 17.9311ZM17.5867 18.3459C17.8418 18.1952 18.0635 18.0569 18.25 17.9312L17.691 17.1012C17.5255 17.2126 17.3216 17.3402 17.0776 17.4843L17.5867 18.3459ZM16.7838 18.7211C17.0458 18.6342 17.3139 18.5067 17.5862 18.3462L17.0781 17.484C16.8516 17.6175 16.6485 17.7116 16.4687 17.7713L16.7838 18.7211ZM16.0124 18.857C16.2651 18.857 16.5239 18.808 16.7848 18.7208L16.4677 17.7716C16.2866 17.8321 16.136 17.8563 16.0124 17.8563V18.857ZM15.9876 18.857H16.0124V17.8563H15.9876V18.857ZM15.2152 18.7208C15.4762 18.808 15.7349 18.857 15.9876 18.857V17.8563C15.8639 17.8563 15.7134 17.8321 15.5324 17.7716L15.2152 18.7208ZM14.4138 18.3462C14.6864 18.5068 14.9542 18.6342 15.2163 18.7211L15.5313 17.7713C15.3514 17.7116 15.1486 17.6177 14.9219 17.484L14.4138 18.3462ZM13.7497 17.9311C13.9363 18.0569 14.158 18.1953 14.4137 18.3461L14.922 17.4841C14.6782 17.3403 14.4744 17.2127 14.3089 17.1012L13.7497 17.9311ZM13.0731 17.4549C13.3415 17.6491 13.5674 17.8082 13.7495 17.931L14.3091 17.1014C14.1395 16.987 13.9233 16.8349 13.6598 16.6442L13.0731 17.4549ZM12.5574 17.0846C12.6358 17.1396 12.8067 17.2622 13.0732 17.455L13.6597 16.6441C13.3943 16.4522 13.2175 16.3252 13.1322 16.2654L12.5574 17.0846ZM9.34328 14.846C10.7426 15.8157 11.8136 16.5616 12.557 17.0843L13.1326 16.2657C12.3864 15.741 11.3131 14.9935 9.91326 14.0235L9.34328 14.846ZM25.4917 13.5842C22.8062 15.4018 20.7628 16.8173 19.3652 17.8288L19.9519 18.6395C21.3366 17.6374 23.3696 16.2289 26.0526 14.4129L25.4917 13.5842ZM26.6274 12.5965C26.3039 12.9575 25.9255 13.2876 25.4897 13.5855L26.0545 14.4116C26.5523 14.0713 26.9921 13.6889 27.3726 13.2645L26.6274 12.5965ZM27.5004 22.678V12.9305H26.4996V22.678H27.5004ZM26.7768 24.4192C27.2548 23.9413 27.5004 23.3523 27.5004 22.678H26.4996C26.4996 23.0848 26.3609 23.4199 26.0692 23.7116L26.7768 24.4192ZM25.0358 25.1429C25.7097 25.1429 26.2991 24.8971 26.7769 24.4192L26.0692 23.7117C25.7776 24.0033 25.4421 24.1422 25.0358 24.1422V25.1429ZM6.96433 25.1429H25.0358V24.1422H6.96433V25.1429ZM5.22308 24.4191C5.70085 24.8971 6.29038 25.1429 6.96433 25.1429V24.1422C6.55786 24.1422 6.22237 24.0033 5.93087 23.7117L5.22308 24.4191ZM4.49963 22.678C4.49963 23.3522 4.74533 23.9414 5.22318 24.4192L5.93077 23.7116C5.63918 23.42 5.50037 23.0848 5.50037 22.678H4.49963ZM4.49963 12.9305V22.678H5.50037V12.9305H4.49963ZM6.51745 13.5821C6.08452 13.2938 5.70335 12.9648 5.37227 12.5962L4.62773 13.2649C5.0169 13.6982 5.46236 14.0818 5.9627 14.415L6.51745 13.5821ZM12.6375 17.8306C11.5244 17.0144 9.48364 15.5977 6.52131 13.5847L5.95885 14.4124C8.92202 16.426 10.9489 17.8334 12.0457 18.6376L12.6375 17.8306ZM13.7532 18.6209C13.4729 18.4354 13.102 18.1728 12.6384 17.8313L12.0449 18.637C12.5141 18.9827 12.9004 19.2565 13.201 19.4555L13.7532 18.6209ZM14.8291 19.1652C14.3627 18.9716 14.0076 18.7893 13.7533 18.621L13.2009 19.4554C13.5278 19.6718 13.9462 19.8823 14.4454 20.0895L14.8291 19.1652ZM15.9877 19.4278C15.6504 19.4278 15.2659 19.3468 14.8293 19.1653L14.4452 20.0894C14.9743 20.3094 15.4902 20.4285 15.9877 20.4285V19.4278ZM16.0125 19.4278H15.9877V20.4285H16.0125V19.4278ZM17.1707 19.1653C16.7341 19.3468 16.3499 19.4278 16.0125 19.4278V20.4285C16.5101 20.4285 17.0258 20.3093 17.5549 20.0894L17.1707 19.1653ZM18.2468 18.6209C17.9923 18.7893 17.6374 18.9717 17.171 19.1652L17.5546 20.0895C18.0541 19.8822 18.4722 19.6717 18.7991 19.4554L18.2468 18.6209ZM19.3618 17.8312C18.898 18.1728 18.5273 18.4354 18.2469 18.6208L18.7989 19.4555C19.0998 19.2565 19.486 18.9826 19.9553 18.637L19.3618 17.8312Z" fill="url(#paint0_linear_883_11049)"/>
<defs>
<linearGradient id="paint0_linear_883_11049" x1="5" y1="7.35721" x2="28.0527" y2="8.89851" gradientUnits="userSpaceOnUse">
<stop stop-color="#4895FF"/>
<stop offset="0.317708" stop-color="#00FFCE"/>
<stop offset="0.671875" stop-color="#847BE7"/>
<stop offset="0.890625" stop-color="#D629F7"/>
<stop offset="1" stop-color="#FF00FF"/>
</linearGradient>
</defs>
</svg>
