<svg width="35" height="35" viewBox="0 0 35 35" fill="none" xmlns="http://www.w3.org/2000/svg">
<g opacity="0.7">
<path d="M28.4816 3.6016C28.2765 3.39648 27.9983 3.28125 27.7082 3.28125C27.4181 3.28125 27.1399 3.39648 26.9348 3.6016C26.7297 3.80672 26.6144 4.08492 26.6144 4.375V5.69792V6.19792H26.1144H22.4915H21.9915V5.69792V4.375C21.9915 4.08492 21.8763 3.80672 21.6712 3.6016C21.466 3.39648 21.1878 3.28125 20.8978 3.28125C20.6077 3.28125 20.3295 3.39648 20.1244 3.6016H28.4816ZM28.4816 3.6016L28.128 3.95515M28.4816 3.6016L28.128 3.95515M28.128 3.95515C28.2394 4.0665 28.3019 4.21753 28.3019 4.375V6.19792V6.69792H28.8019H30.6234C31.1669 6.70135 31.6873 6.9188 32.0717 7.30319C32.4561 7.68759 32.6735 8.20797 32.6769 8.75156V29.1651C32.6735 29.7087 32.4561 30.2291 32.0717 30.6135C31.6872 30.9979 31.1669 31.2153 30.6233 31.2188H4.37639C3.83281 31.2153 3.31243 30.9979 2.92803 30.6135C2.54363 30.2291 2.32619 29.7087 2.32275 29.1652V8.75149C2.32619 8.20793 2.54363 7.68758 2.92803 7.30319C3.31241 6.9188 3.83276 6.70135 4.37632 6.69792H6.19775H6.69775V6.19792V4.375C6.69775 4.21753 6.76031 4.0665 6.87166 3.95516C6.98301 3.84381 7.13403 3.78125 7.2915 3.78125C7.44898 3.78125 7.6 3.84381 7.71135 3.95516C7.8227 4.0665 7.88525 4.21753 7.88525 4.375V6.19792V6.69792H8.38525H13.0082H13.5082V6.19792V4.375C13.5082 4.21753 13.5707 4.06651 13.6821 3.95516C13.7934 3.84381 13.9444 3.78125 14.1019 3.78125C14.2594 3.78125 14.4104 3.84381 14.5218 3.95516C14.6331 4.06651 14.6957 4.21753 14.6957 4.375V6.19792V6.69792H15.1957H19.804H20.304V6.19792V4.375C20.304 4.21753 20.3666 4.06651 20.4779 3.95516L20.1256 3.60289L20.4779 3.95515C20.5893 3.84381 20.7403 3.78125 20.8978 3.78125C21.0552 3.78125 21.2063 3.84381 21.3176 3.95516C21.429 4.06651 21.4915 4.21753 21.4915 4.375V6.19792V6.69792H21.9915H26.6144H27.1144V6.19792V4.375C27.1144 4.21753 27.177 4.0665 27.2883 3.95516C27.3997 3.84381 27.5507 3.78125 27.7082 3.78125C27.8656 3.78125 28.0167 3.84381 28.128 3.95515ZM20.79 18.1548L16.7707 22.1741L15.3471 20.7506C15.2005 20.6008 15.0255 20.4817 14.8324 20.4002C14.6381 20.3183 14.4294 20.276 14.2186 20.276C14.0078 20.276 13.7991 20.3183 13.6048 20.4002C13.4116 20.4817 13.2365 20.6009 13.0898 20.7508C12.7927 21.0495 12.6258 21.4536 12.6258 21.875C12.6258 22.2967 12.7929 22.7011 13.0905 22.9998C13.0909 23.0003 13.0914 23.0008 13.0919 23.0013L15.5974 25.5505L15.5974 25.5505L15.6007 25.5538C15.8995 25.8522 16.3046 26.0199 16.7269 26.0199C17.1489 26.0199 17.5536 25.8525 17.8524 25.5546C17.8526 25.5543 17.8529 25.554 17.8532 25.5538L22.9915 20.4591C23.1484 20.3164 23.2752 20.1437 23.3645 19.9512L22.911 19.7407L23.3645 19.9512C23.4558 19.7544 23.506 19.5411 23.512 19.3242C23.518 19.1074 23.4796 18.8916 23.3992 18.6901C23.3193 18.4897 23.1996 18.3076 23.0472 18.1549C22.9006 18.005 22.7256 17.8859 22.5324 17.8044C22.3381 17.7224 22.1294 17.6802 21.9186 17.6802C21.7078 17.6802 21.4991 17.7224 21.3048 17.8044C21.1117 17.8858 20.9367 18.005 20.79 18.1548ZM30.6248 12.8958H31.1248V12.3958V8.75V8.25H30.6248H4.37484H3.87484V8.75V12.3958V12.8958H4.37484H30.6248Z" stroke="url(#paint0_linear_1061_17619)"/>
</g>
<defs>
<linearGradient id="paint0_linear_1061_17619" x1="1.82275" y1="3.28125" x2="34.7137" y2="5.18631" gradientUnits="userSpaceOnUse">
<stop stop-color="#4895FF"/>
<stop offset="0.317708" stop-color="#00FFCE"/>
<stop offset="0.671875" stop-color="#847BE7"/>
<stop offset="0.890625" stop-color="#D629F7"/>
<stop offset="1" stop-color="#FF00FF"/>
</linearGradient>
</defs>
</svg>
