<svg width="33" height="33" viewBox="0 0 33 33" fill="none" xmlns="http://www.w3.org/2000/svg">
<g opacity="0.7" clip-path="url(#clip0_1061_17613)">
<path d="M10.9695 10.6012H11.0098V22.939C11.0098 23.4682 11.2909 23.8456 11.6618 24.1105L11.6684 24.1152L11.6751 24.1197C11.8013 24.2038 11.9425 24.2518 12.0525 24.2793C12.1658 24.3076 12.2874 24.3244 12.3951 24.3244C12.5029 24.3244 12.6244 24.3076 12.7377 24.2793C12.8435 24.2528 12.9782 24.2075 13.1006 24.1292L24.0651 17.7031C24.4797 17.4864 24.7671 16.9898 24.7671 16.5C24.7671 15.9709 24.4859 15.5934 24.115 15.3285L24.0961 15.315L24.076 15.3033L13.1065 8.91448C12.8505 8.74072 12.5644 8.70254 12.3297 8.71677C12.0886 8.73138 11.8622 8.80256 11.6886 8.88937C11.2649 9.10123 10.9695 9.60469 10.9695 10.1012V10.6012ZM0.5 16.5C0.5 7.64078 7.64078 0.5 16.5 0.5C25.3592 0.5 32.5 7.64078 32.5 16.5C32.5 25.3592 25.3592 32.5 16.5 32.5C7.64078 32.5 0.5 25.3592 0.5 16.5Z" stroke="url(#paint0_linear_1061_17613)"/>
</g>
<defs>
<linearGradient id="paint0_linear_1061_17613" x1="0" y1="0" x2="34.638" y2="1.81962" gradientUnits="userSpaceOnUse">
<stop stop-color="#4895FF"/>
<stop offset="0.317708" stop-color="#00FFCE"/>
<stop offset="0.671875" stop-color="#847BE7"/>
<stop offset="0.890625" stop-color="#D629F7"/>
<stop offset="1" stop-color="#FF00FF"/>
</linearGradient>
<clipPath id="clip0_1061_17613">
<rect width="33" height="33" fill="white"/>
</clipPath>
</defs>
</svg>
