<svg width="22" height="22" viewBox="0 0 22 22" fill="none" xmlns="http://www.w3.org/2000/svg">
<g opacity="0.8">
<path fill-rule="evenodd" clip-rule="evenodd" d="M4.58365 1.83333C4.58365 2.84588 3.76281 3.66666 2.75032 3.66666C1.73784 3.66666 0.916992 2.84588 0.916992 1.83333C0.916992 0.820783 1.73784 0 2.75032 0C3.76281 0 4.58365 0.820783 4.58365 1.83333ZM0.916992 22V7.33335H4.58365V22H0.916992ZM14.6669 11C13.1481 11 11.9169 12.2312 11.9169 13.75V22H8.25026V7.3333H11.9169V9.16664L12.3445 8.7391C14.492 6.5916 18.9524 6.73778 20.5768 9.9865C20.9101 10.653 21.0836 11.3879 21.0836 12.133V22H17.4169V13.75C17.4169 12.2312 16.1857 11 14.6669 11Z" fill="white"/>
</g>
</svg>
