<svg width="32" height="32" viewBox="0 0 32 32" fill="none" xmlns="http://www.w3.org/2000/svg">
<path d="M25.2347 19.4405C23.8878 19.4405 22.5653 19.2298 21.312 18.8157C20.6979 18.6062 19.943 18.7984 19.5682 19.1833L17.0945 21.0507C14.2257 19.5193 12.4586 17.7528 10.9482 14.9056L12.7606 12.4963C13.2315 12.0261 13.4004 11.3392 13.198 10.6946C12.7821 9.43478 12.5708 8.11289 12.5708 6.76539C12.5709 5.79194 11.7789 5 10.8055 5H6.76533C5.79194 5 5 5.79194 5 6.76533C5 17.9229 14.0772 27 25.2347 27C26.2081 27 27.0001 26.2081 27.0001 25.2347V21.2058C27 20.2324 26.2081 19.4405 25.2347 19.4405Z" stroke="url(#paint0_linear_883_11053)" stroke-width="1.00073"/>
<defs>
<linearGradient id="paint0_linear_883_11053" x1="5" y1="5" x2="28.0921" y2="6.21309" gradientUnits="userSpaceOnUse">
<stop stop-color="#4895FF"/>
<stop offset="0.317708" stop-color="#00FFCE"/>
<stop offset="0.671875" stop-color="#847BE7"/>
<stop offset="0.890625" stop-color="#D629F7"/>
<stop offset="1" stop-color="#FF00FF"/>
</linearGradient>
</defs>
</svg>
