<svg width="22" height="22" viewBox="0 0 22 22" fill="none" xmlns="http://www.w3.org/2000/svg">
<g opacity="0.8" clip-path="url(#clip0_931_12391)">
<path d="M0.484727 12.0166L5.54477 13.735L17.5592 6.39007C17.7337 6.284 17.912 6.5205 17.7619 6.65879L8.66644 15.0306L8.32858 19.7175C8.32306 19.796 8.34153 19.8743 8.38156 19.9421C8.42158 20.0098 8.48126 20.0638 8.55268 20.0969C8.6241 20.13 8.70389 20.1406 8.78146 20.1272C8.85903 20.1139 8.93071 20.0773 8.98701 20.0223L11.7873 17.2684L16.9071 21.1436C17.4586 21.5616 18.2577 21.2669 18.4062 20.5912L21.971 4.40534C22.1745 3.48212 21.2694 2.70269 20.387 3.04055L0.459584 10.6715C-0.165849 10.9111 -0.148564 11.8013 0.484727 12.0166Z" fill="white"/>
</g>
<defs>
<clipPath id="clip0_931_12391">
<rect width="22" height="22" fill="white"/>
</clipPath>
</defs>
</svg>
