<svg width="35" height="31" viewBox="0 0 35 31" fill="none" xmlns="http://www.w3.org/2000/svg">
<g opacity="0.7" clip-path="url(#clip0_1061_17637)">
<mask id="path-1-inside-1_1061_17637" fill="white">
<path fill-rule="evenodd" clip-rule="evenodd" d="M17.5 11.8724C20.7846 11.8724 23.4473 9.24902 23.4473 6.01297C23.4473 2.77691 20.7846 0.153564 17.5 0.153564C14.2154 0.153564 11.5527 2.77691 11.5527 6.01297C11.5527 9.24902 14.2154 11.8724 17.5 11.8724ZM29.5312 11.8723C31.6077 11.8723 33.291 10.2139 33.291 8.16807C33.291 6.12229 31.6077 4.46385 29.5312 4.46385C27.4548 4.46385 25.7715 6.12229 25.7715 8.16807C25.7715 10.2139 27.4548 11.8723 29.5312 11.8723ZM9.22852 8.16807C9.22852 10.2139 7.54521 11.8723 5.46875 11.8723C3.39229 11.8723 1.70898 10.2139 1.70898 8.16807C1.70898 6.12229 3.39229 4.46385 5.46875 4.46385C7.54521 4.46385 9.22852 6.12229 9.22852 8.16807ZM9.17315 15.1988C7.8512 14.1317 6.64067 14.1439 5.17771 14.1587L5.17749 14.1587C5.00267 14.1605 4.82425 14.1623 4.6416 14.1623C2.08223 14.1623 0 16.2016 0 18.7077V26.0629C0 27.1513 0.90166 28.0363 2.01045 28.0363C3.13454 28.0363 3.96286 28.041 4.57235 28.0444C5.96263 28.0523 6.21419 28.0537 6.24002 27.9781C6.24572 27.9614 6.24041 27.9409 6.23393 27.9159C6.22783 27.8924 6.2207 27.865 6.2207 27.8329C6.2207 27.1348 6.20947 26.4617 6.1986 25.8107C6.1283 21.6011 6.07346 18.3167 9.17315 15.1988ZM11.2998 16.0143C13.5407 14.1919 16.1387 13.9435 19.1276 14.1891C22.5126 14.1891 26.7285 17.5158 26.7285 22.3128C26.7285 27.5494 26.7863 28.0948 26.6188 28.5588C26.5931 28.6299 26.5621 28.6991 26.5248 28.7831C25.8361 30.2856 25.3297 30.2818 17.6349 30.223C15.7693 30.2088 13.4812 30.1913 10.6654 30.1913C9.33652 30.1913 8.27149 29.1224 8.27149 27.8328C8.27149 27.1369 8.25678 26.4591 8.24247 25.7999C8.15657 21.8414 8.08517 18.5511 11.2998 16.0143ZM29.8232 14.1587C29.9976 14.1604 30.1758 14.1622 30.3584 14.1622C32.9178 14.1622 35 16.2015 35 18.7076V25.9928C35 27.1195 34.0662 28.0362 32.9178 28.0362C29.3057 28.0362 28.8124 28.0895 28.7687 27.9736C28.7566 27.9414 28.7793 27.896 28.7793 27.8328C28.7793 27.1093 28.7897 26.4193 28.7996 25.7585C28.8653 21.3961 28.9118 18.3019 25.8269 15.1987C27.148 14.1322 28.3533 14.1442 29.8232 14.1587Z"/>
</mask>
<path d="M5.17771 14.1587L5.16761 13.1587L5.16446 13.1588L5.17771 14.1587ZM9.17315 15.1988L9.88232 15.9038L10.6643 15.1173L9.80125 14.4206L9.17315 15.1988ZM5.17749 14.1587L5.18759 15.1587L5.19073 15.1586L5.17749 14.1587ZM4.57235 28.0444L4.57803 27.0444H4.57803L4.57235 28.0444ZM6.24002 27.9781L7.18638 28.3012L7.18638 28.3012L6.24002 27.9781ZM6.23393 27.9159L5.26597 28.1671L5.26597 28.1671L6.23393 27.9159ZM6.1986 25.8107L5.19873 25.8274L6.1986 25.8107ZM19.1276 14.1891L19.0457 15.1858L19.0866 15.1891H19.1276V14.1891ZM11.2998 16.0143L11.9193 16.7993L11.9251 16.7948L11.9307 16.7901L11.2998 16.0143ZM26.6188 28.5588L27.5593 28.8984L27.5593 28.8984L26.6188 28.5588ZM26.5248 28.7831L27.4339 29.1998L27.4386 29.1892L26.5248 28.7831ZM17.6349 30.223L17.6273 31.223L17.6349 30.223ZM8.24247 25.7999L7.24271 25.8216L8.24247 25.7999ZM29.8232 14.1587L29.8331 13.1587L29.8232 14.1587ZM28.7687 27.9736L29.7047 27.6214L29.7047 27.6214L28.7687 27.9736ZM28.7996 25.7585L27.7997 25.7435L28.7996 25.7585ZM25.8269 15.1987L25.1988 14.4206L24.3357 15.1172L25.1177 15.9037L25.8269 15.1987ZM22.4473 6.01297C22.4473 8.68276 20.2464 10.8724 17.5 10.8724V12.8724C21.3228 12.8724 24.4473 9.81529 24.4473 6.01297H22.4473ZM17.5 1.15356C20.2464 1.15356 22.4473 3.34317 22.4473 6.01297H24.4473C24.4473 2.21064 21.3228 -0.846436 17.5 -0.846436V1.15356ZM12.5527 6.01297C12.5527 3.34317 14.7536 1.15356 17.5 1.15356V-0.846436C13.6772 -0.846436 10.5527 2.21064 10.5527 6.01297H12.5527ZM17.5 10.8724C14.7536 10.8724 12.5527 8.68276 12.5527 6.01297H10.5527C10.5527 9.81529 13.6772 12.8724 17.5 12.8724V10.8724ZM32.291 8.16807C32.291 9.64759 31.0695 10.8723 29.5312 10.8723V12.8723C32.1459 12.8723 34.291 10.7801 34.291 8.16807H32.291ZM29.5312 5.46385C31.0695 5.46385 32.291 6.68855 32.291 8.16807H34.291C34.291 5.55603 32.1459 3.46385 29.5312 3.46385V5.46385ZM26.7715 8.16807C26.7715 6.68855 27.993 5.46385 29.5312 5.46385V3.46385C26.9166 3.46385 24.7715 5.55603 24.7715 8.16807H26.7715ZM29.5312 10.8723C27.993 10.8723 26.7715 9.64759 26.7715 8.16807H24.7715C24.7715 10.7801 26.9166 12.8723 29.5312 12.8723V10.8723ZM5.46875 12.8723C8.08341 12.8723 10.2285 10.7801 10.2285 8.16807H8.22852C8.22852 9.64759 7.00701 10.8723 5.46875 10.8723V12.8723ZM0.708984 8.16807C0.708984 10.7801 2.85409 12.8723 5.46875 12.8723V10.8723C3.93049 10.8723 2.70898 9.64759 2.70898 8.16807H0.708984ZM5.46875 3.46385C2.85409 3.46385 0.708984 5.55603 0.708984 8.16807H2.70898C2.70898 6.68855 3.93049 5.46385 5.46875 5.46385V3.46385ZM10.2285 8.16807C10.2285 5.55603 8.08341 3.46385 5.46875 3.46385V5.46385C7.00701 5.46385 8.22852 6.68855 8.22852 8.16807H10.2285ZM5.18781 15.1586C6.6542 15.1438 7.52714 15.1553 8.54504 15.9769L9.80125 14.4206C8.17525 13.1081 6.62714 13.144 5.16761 13.1588L5.18781 15.1586ZM5.19073 15.1586L5.19095 15.1586L5.16446 13.1588L5.16425 13.1588L5.19073 15.1586ZM4.6416 15.1623C4.8301 15.1623 5.0135 15.1604 5.18759 15.1587L5.16739 13.1588C4.99185 13.1605 4.8184 13.1623 4.6416 13.1623V15.1623ZM1 18.7077C1 16.7735 2.61471 15.1623 4.6416 15.1623V13.1623C1.54975 13.1623 -1 15.6297 -1 18.7077H1ZM1 26.0629V18.7077H-1V26.0629H1ZM2.01045 27.0363C1.43628 27.0363 1 26.5815 1 26.0629H-1C-1 27.7211 0.367037 29.0363 2.01045 29.0363V27.0363ZM4.57803 27.0444C3.96814 27.041 3.13749 27.0363 2.01045 27.0363V29.0363C3.13158 29.0363 3.95759 29.0409 4.56667 29.0444L4.57803 27.0444ZM5.29366 27.655C5.38206 27.3961 5.55804 27.2321 5.70634 27.1438C5.8298 27.0703 5.93408 27.048 5.95657 27.0433C6.0021 27.0336 6.00321 27.0391 5.88406 27.0432C5.66948 27.0504 5.28608 27.0485 4.57803 27.0444L4.56667 29.0444C5.24889 29.0483 5.68641 29.051 5.95164 29.042C6.0724 29.0379 6.22814 29.0301 6.37154 28.9997C6.43746 28.9857 6.98883 28.8798 7.18638 28.3012L5.29366 27.655ZM5.26597 28.1671C5.27332 28.1954 5.2591 28.146 5.25093 28.0868C5.24192 28.0215 5.22544 27.8548 5.29365 27.655L7.18638 28.3012C7.2603 28.0847 7.24402 27.8994 7.23216 27.8135C7.22576 27.767 7.21755 27.7294 7.21257 27.7079C7.20777 27.6873 7.20279 27.6683 7.20188 27.6648L5.26597 28.1671ZM5.2207 27.8329C5.2207 28.0078 5.26123 28.1488 5.26597 28.1671L7.20188 27.6648C7.19444 27.6361 7.2207 27.7222 7.2207 27.8329H5.2207ZM5.19873 25.8274C5.20962 26.4795 5.2207 27.1445 5.2207 27.8329H7.2207C7.2207 27.1252 7.20931 26.4439 7.19846 25.794L5.19873 25.8274ZM8.46397 14.4937C5.03271 17.9451 5.12904 21.6538 5.19873 25.8274L7.19846 25.794C7.12757 21.5485 7.11421 18.6882 9.88232 15.9038L8.46397 14.4937ZM19.2095 13.1925C16.1314 12.9395 13.2108 13.1713 10.6689 15.2384L11.9307 16.7901C13.8706 15.2126 16.146 14.9475 19.0457 15.1858L19.2095 13.1925ZM27.7285 22.3128C27.7285 19.6073 26.5371 17.3267 24.8933 15.7339C23.2652 14.1563 21.1254 13.1891 19.1276 13.1891V15.1891C20.5148 15.1891 22.1755 15.8853 23.5015 17.1702C24.8119 18.44 25.7285 20.2212 25.7285 22.3128H27.7285ZM27.5593 28.8984C27.7111 28.4782 27.7302 28.0503 27.7365 27.2332C27.743 26.3813 27.7285 24.9145 27.7285 22.3128H25.7285C25.7285 24.9478 25.743 26.3719 25.7365 27.2179C25.7298 28.0986 25.694 28.1753 25.6782 28.2191L27.5593 28.8984ZM27.4386 29.1892C27.4717 29.1149 27.519 29.0102 27.5593 28.8984L25.6782 28.2191C25.6672 28.2496 25.6526 28.2834 25.611 28.3769L27.4386 29.1892ZM17.6273 31.223C21.4198 31.252 23.582 31.2721 24.8582 31.0771C25.5216 30.9757 26.0882 30.7993 26.5491 30.4334C27.0093 30.0681 27.2504 29.6 27.4339 29.1997L25.6157 28.3664C25.4549 28.7174 25.3744 28.8123 25.3055 28.867C25.2373 28.9212 25.0672 29.0219 24.5561 29.1C23.4832 29.264 21.5448 29.2529 17.6425 29.2231L17.6273 31.223ZM10.6654 31.1913C13.477 31.1913 15.7618 31.2088 17.6273 31.223L17.6425 29.2231C15.7768 29.2088 13.4853 29.1913 10.6654 29.1913V31.1913ZM7.27149 27.8328C7.27149 29.6833 8.79288 31.1913 10.6654 31.1913V29.1913C9.88017 29.1913 9.27149 28.5616 9.27149 27.8328H7.27149ZM7.24271 25.8216C7.25705 26.4823 7.27149 27.1494 7.27149 27.8328H9.27149C9.27149 27.1243 9.25651 26.4359 9.24224 25.7782L7.24271 25.8216ZM10.6803 15.2293C7.02331 18.1152 7.15843 21.9381 7.24271 25.8216L9.24224 25.7782C9.15471 21.7447 9.14702 18.9871 11.9193 16.7993L10.6803 15.2293ZM30.3584 13.1622C30.1816 13.1622 30.0082 13.1605 29.8331 13.1587L29.8133 15.1586C29.987 15.1604 30.1701 15.1622 30.3584 15.1622V13.1622ZM36 18.7076C36 15.6296 33.4502 13.1622 30.3584 13.1622V15.1622C32.3853 15.1622 34 16.7734 34 18.7076H36ZM36 25.9928V18.7076H34V25.9928H36ZM32.9178 29.0362C34.6007 29.0362 36 27.6894 36 25.9928H34C34 26.5497 33.5317 27.0362 32.9178 27.0362V29.0362ZM27.8328 28.3258C27.9743 28.7019 28.2725 28.8728 28.4483 28.9413C28.6018 29.0012 28.7477 29.019 28.8242 29.0269C28.9923 29.0444 29.2225 29.0478 29.5031 29.0483C30.0625 29.0495 31.1506 29.0362 32.9178 29.0362V27.0362C31.0729 27.0362 30.1082 27.0495 29.5071 27.0483C29.2073 27.0478 29.0803 27.0428 29.0307 27.0376C28.9984 27.0343 29.0704 27.0372 29.1745 27.0778C29.3009 27.1271 29.5741 27.2743 29.7047 27.6214L27.8328 28.3258ZM27.7793 27.8328C27.7793 27.756 27.7949 27.6838 27.785 27.7391C27.7828 27.7516 27.7698 27.8207 27.7662 27.9039C27.7624 27.9927 27.766 28.1483 27.8328 28.3258L29.7047 27.6214C29.7654 27.7828 29.7673 27.9206 29.7644 27.9898C29.7628 28.0258 29.7594 28.0535 29.7574 28.0681C29.7554 28.0825 29.7536 28.0922 29.7539 28.0905C29.754 28.0899 29.7542 28.0892 29.7549 28.0852C29.7554 28.0821 29.7564 28.0767 29.7575 28.0707C29.7597 28.0585 29.7629 28.0397 29.766 28.0174C29.7725 27.9721 29.7793 27.9085 29.7793 27.8328H27.7793ZM27.7997 25.7435C27.7898 26.4034 27.7793 27.1006 27.7793 27.8328H29.7793C29.7793 27.1179 29.7896 26.4353 29.7995 25.7735L27.7997 25.7435ZM25.1177 15.9037C27.8735 18.6758 27.8658 21.351 27.7997 25.7435L29.7995 25.7735C29.8647 21.4412 29.9502 17.928 26.536 14.4937L25.1177 15.9037ZM29.8331 13.1587C28.3665 13.1442 26.8238 13.1088 25.1988 14.4206L26.455 15.9768C27.4722 15.1557 28.3401 15.1441 29.8133 15.1586L29.8331 13.1587Z" fill="url(#paint0_linear_1061_17637)" mask="url(#path-1-inside-1_1061_17637)"/>
</g>
<defs>
<linearGradient id="paint0_linear_1061_17637" x1="0" y1="0.153564" x2="36.7016" y2="2.39638" gradientUnits="userSpaceOnUse">
<stop stop-color="#4895FF"/>
<stop offset="0.317708" stop-color="#00FFCE"/>
<stop offset="0.671875" stop-color="#847BE7"/>
<stop offset="0.890625" stop-color="#D629F7"/>
<stop offset="1" stop-color="#FF00FF"/>
</linearGradient>
<clipPath id="clip0_1061_17637">
<rect width="35" height="30.3947" fill="white"/>
</clipPath>
</defs>
</svg>
