<svg width="33" height="33" viewBox="0 0 33 33" fill="none" xmlns="http://www.w3.org/2000/svg">
<g opacity="0.7" clip-path="url(#clip0_1061_17628)">
<path d="M16.9845 23.925L16.9837 23.925C12.4983 24.2072 8.79286 20.5092 9.07492 16.0165L16.9845 23.925ZM16.9845 23.925C20.6848 23.686 23.686 20.6848 23.925 16.9845L23.9251 16.9836M16.9845 23.925L23.9251 16.9836M23.9251 16.9836C24.2072 12.4909 20.5019 8.79286 16.0165 9.07488L23.9251 16.9836ZM0.657949 16.0172C4.80847 10.5056 10.3908 7.16443 16.5 7.16443C22.6091 7.16443 28.1914 10.5055 32.3419 16.0237C32.5525 16.3047 32.5527 16.7011 32.3424 16.9823L0.657949 16.0172ZM0.657949 16.0172C0.447309 16.2984 0.447351 16.695 0.658072 16.9761C4.80856 22.4944 10.3909 25.8355 16.5 25.8355C22.6091 25.8355 28.1913 22.4945 32.3418 16.983L0.657949 16.0172ZM16.7122 19.7272L16.7116 19.7272C14.7559 19.8502 13.1441 18.2415 13.2726 16.2898L13.2728 16.2877C13.3719 14.6782 14.6817 13.3715 16.2956 13.2659C18.2511 13.1432 19.8627 14.7519 19.7341 16.7034L19.7341 16.7038C19.6289 18.3233 18.3165 19.628 16.7122 19.7272ZM16.0163 9.0749C12.3086 9.30673 9.30674 12.3086 9.07493 16.0163L16.0163 9.0749Z" stroke="url(#paint0_linear_1061_17628)"/>
</g>
<defs>
<linearGradient id="paint0_linear_1061_17628" x1="0" y1="6.66443" x2="34.4659" y2="9.70184" gradientUnits="userSpaceOnUse">
<stop stop-color="#4895FF"/>
<stop offset="0.317708" stop-color="#00FFCE"/>
<stop offset="0.671875" stop-color="#847BE7"/>
<stop offset="0.890625" stop-color="#D629F7"/>
<stop offset="1" stop-color="#FF00FF"/>
</linearGradient>
<clipPath id="clip0_1061_17628">
<rect width="33" height="33" fill="white"/>
</clipPath>
</defs>
</svg>
