<svg  viewBox="0 0 693 635" fill="none" xmlns="http://www.w3.org/2000/svg">
<g opacity="0.5">
<g opacity="0.7">
<mask id="path-1-outside-1_883_10945" maskUnits="userSpaceOnUse" x="58.6189" y="-35.752" fill="black">
<rect fill="white" x="58.6189" y="-35.752" />
<path fill-rule="evenodd" clip-rule="evenodd" d="M134.867 343.521L216.595 38.5067C218.736 30.5199 229.116 26.9742 237.356 31.4153C252.431 40.8512 266.724 50.0776 280.821 59.2516C293.838 67.7639 305.366 77.9242 315.348 89.1592C315.991 89.8897 320.833 95.2811 320.833 95.2811C343.824 122.098 354.639 156.817 347.811 190.903C347.448 193.039 346.844 195.296 346.239 197.553L346.239 197.553L282.933 433.812C281.445 439.368 274.36 441.564 268.959 438.256L142.29 360.397C136.201 356.533 133.192 349.772 134.867 343.521ZM542.583 257.001L460.855 562.016C458.715 570.002 448.334 573.548 440.094 569.107C425.019 559.671 410.726 550.445 396.629 541.271C383.612 532.758 372.084 522.598 362.102 511.363C361.459 510.633 356.617 505.241 356.617 505.241C333.626 478.425 322.811 443.705 329.639 409.619C330.002 407.484 330.606 405.227 331.211 402.97L331.211 402.969L394.517 166.71C396.005 161.154 403.09 158.959 408.491 162.267L535.16 240.125C541.249 243.99 544.258 250.751 542.583 257.001Z"/>
</mask>
<path d="M216.595 38.5067L215.63 38.2479L215.63 38.2479L216.595 38.5067ZM134.867 343.521L133.901 343.262L133.901 343.262L134.867 343.521ZM237.356 31.4153L237.887 30.5676L237.859 30.5504L237.831 30.535L237.356 31.4153ZM280.821 59.2516L281.368 58.4146L281.366 58.4134L280.821 59.2516ZM315.348 89.1592L316.099 88.4987L316.096 88.495L315.348 89.1592ZM320.833 95.2811L321.592 94.6302L321.585 94.6215L321.577 94.6129L320.833 95.2811ZM347.811 190.903L346.831 190.707L346.828 190.721L346.825 190.736L347.811 190.903ZM346.239 197.553L347.186 197.873L347.196 197.843L347.205 197.812L346.239 197.553ZM346.239 197.553L345.291 197.233L345.281 197.263L345.273 197.294L346.239 197.553ZM282.933 433.812L283.899 434.071L282.933 433.812ZM268.959 438.256L268.436 439.108L268.437 439.108L268.959 438.256ZM142.29 360.397L141.754 361.242L141.76 361.245L141.766 361.249L142.29 360.397ZM460.855 562.016L459.889 561.757L460.855 562.016ZM542.583 257.001L543.549 257.26L542.583 257.001ZM440.094 569.107L439.563 569.955L439.591 569.972L439.619 569.987L440.094 569.107ZM396.629 541.271L396.082 542.108L396.084 542.109L396.629 541.271ZM362.102 511.363L361.351 512.024L361.354 512.027L362.102 511.363ZM356.617 505.241L355.858 505.892L355.865 505.901L355.873 505.909L356.617 505.241ZM329.639 409.619L330.619 409.816L330.622 409.801L330.625 409.787L329.639 409.619ZM331.211 402.97L330.25 402.695L330.247 402.703L330.245 402.711L331.211 402.97ZM331.211 402.969L332.173 403.244L332.175 403.236L332.177 403.228L331.211 402.969ZM394.517 166.71L393.551 166.451L394.517 166.71ZM408.491 162.267L409.014 161.415L409.013 161.414L408.491 162.267ZM535.16 240.125L535.696 239.281L535.69 239.277L535.684 239.273L535.16 240.125ZM215.63 38.2479L133.901 343.262L135.833 343.78L217.561 38.7655L215.63 38.2479ZM237.831 30.535C229.174 25.8698 217.979 29.4805 215.63 38.2479L217.561 38.7655C219.492 31.5593 229.057 28.0786 236.882 32.2956L237.831 30.535ZM281.366 58.4134C267.267 49.2382 252.969 40.0082 237.887 30.5676L236.826 32.2629C251.893 41.6942 266.18 50.9169 280.275 60.0897L281.366 58.4134ZM316.096 88.495C306.058 77.1982 294.464 66.9785 281.368 58.4146L280.274 60.0885C293.212 68.5493 304.673 78.6503 314.601 89.8234L316.096 88.495ZM320.833 95.2811C321.577 94.6129 321.577 94.6129 321.577 94.6129C321.577 94.6128 321.577 94.6127 321.577 94.6127C321.577 94.6125 321.576 94.6123 321.576 94.6119C321.575 94.6113 321.575 94.6103 321.573 94.609C321.571 94.6064 321.568 94.6026 321.563 94.5974C321.554 94.5872 321.54 94.572 321.522 94.5522C321.487 94.5126 321.434 94.4543 321.368 94.3799C321.234 94.2311 321.042 94.0176 320.81 93.7593C320.346 93.2425 319.721 92.5458 319.076 91.8264C317.783 90.3844 316.416 88.8592 316.099 88.4987L314.597 89.8197C314.923 90.1896 316.299 91.7254 317.587 93.1618C318.233 93.8815 318.858 94.5784 319.322 95.0953C319.554 95.3538 319.746 95.5673 319.88 95.7161C319.946 95.7906 319.999 95.8489 320.034 95.8885C320.052 95.9084 320.066 95.9236 320.075 95.9338C320.08 95.9389 320.083 95.9428 320.085 95.9454C320.087 95.9467 320.087 95.9477 320.088 95.9483C320.088 95.9486 320.089 95.9489 320.089 95.949C320.089 95.9491 320.089 95.9492 320.089 95.9492C320.089 95.9493 320.089 95.9493 320.833 95.2811ZM348.792 191.099C355.688 156.674 344.757 121.649 321.592 94.6302L320.074 95.932C342.891 122.546 353.591 156.96 346.831 190.707L348.792 191.099ZM347.205 197.812C347.807 195.565 348.425 193.261 348.797 191.07L346.825 190.736C346.472 192.817 345.88 195.027 345.273 197.294L347.205 197.812ZM347.186 197.874L347.186 197.873L345.292 197.232L345.291 197.233L347.186 197.874ZM283.899 434.071L347.205 197.812L345.273 197.294L281.968 433.553L283.899 434.071ZM268.437 439.108C274.263 442.677 282.196 440.428 283.899 434.071L281.968 433.553C280.693 438.308 274.457 440.451 269.482 437.403L268.437 439.108ZM141.766 361.249L268.436 439.108L269.483 437.404L142.814 359.545L141.766 361.249ZM133.901 343.262C132.095 350.003 135.359 357.183 141.754 361.242L142.826 359.553C137.042 355.882 134.29 349.54 135.833 343.78L133.901 343.262ZM461.82 562.274L543.549 257.26L541.617 256.742L459.889 561.757L461.82 562.274ZM439.619 569.987C448.276 574.652 459.471 571.042 461.82 562.274L459.889 561.757C457.958 568.963 448.393 572.444 440.568 568.227L439.619 569.987ZM396.084 542.109C410.183 551.284 424.481 560.514 439.563 569.955L440.624 568.259C425.557 558.828 411.27 549.605 397.175 540.433L396.084 542.109ZM361.354 512.027C371.392 523.324 382.986 533.544 396.082 542.108L397.176 540.434C384.238 531.973 372.777 521.872 362.849 510.699L361.354 512.027ZM356.617 505.241C355.873 505.909 355.873 505.909 355.873 505.909C355.873 505.909 355.873 505.909 355.873 505.91C355.874 505.91 355.874 505.91 355.874 505.91C355.875 505.911 355.875 505.912 355.877 505.913C355.879 505.916 355.882 505.92 355.887 505.925C355.896 505.935 355.91 505.95 355.928 505.97C355.963 506.01 356.016 506.068 356.082 506.142C356.216 506.291 356.408 506.505 356.64 506.763C357.104 507.28 357.729 507.976 358.374 508.696C359.667 510.138 361.034 511.663 361.351 512.024L362.853 510.703C362.527 510.333 361.151 508.797 359.863 507.36C359.217 506.641 358.592 505.944 358.128 505.427C357.896 505.168 357.704 504.955 357.571 504.806C357.504 504.732 357.451 504.673 357.416 504.634C357.398 504.614 357.384 504.599 357.375 504.588C357.37 504.583 357.367 504.579 357.365 504.577C357.363 504.576 357.363 504.575 357.362 504.574C357.362 504.574 357.362 504.573 357.361 504.573C357.361 504.573 357.361 504.573 357.361 504.573C357.361 504.573 357.361 504.573 356.617 505.241ZM328.658 409.423C321.762 443.848 332.693 478.873 355.858 505.892L357.376 504.59C334.559 477.976 323.859 443.562 330.619 409.816L328.658 409.423ZM330.245 402.711C329.643 404.958 329.025 407.262 328.653 409.452L330.625 409.787C330.978 407.706 331.57 405.496 332.177 403.229L330.245 402.711ZM330.25 402.694L330.25 402.695L332.172 403.245L332.173 403.244L330.25 402.694ZM393.551 166.451L330.245 402.71L332.177 403.228L395.483 166.969L393.551 166.451ZM409.013 161.414C403.187 157.845 395.254 160.094 393.551 166.451L395.483 166.969C396.757 162.214 402.993 160.072 407.968 163.119L409.013 161.414ZM535.684 239.273L409.014 161.415L407.967 163.118L534.636 240.977L535.684 239.273ZM543.549 257.26C545.355 250.519 542.091 243.34 535.696 239.281L534.624 240.969C540.408 244.64 543.161 250.982 541.617 256.742L543.549 257.26Z" fill="url(#paint0_linear_883_10945)" mask="url(#path-1-outside-1_883_10945)"/>
</g>
<path opacity="0.7" d="M223.667 36.652L223.653 36.6441L223.638 36.6371C214.963 32.5324 204.377 36.6703 202.574 45.1534L136.921 354.027C135.523 360.605 139.019 367.401 145.46 371.031L145.467 371.035L276.037 442.157L276.038 442.157C281.823 445.297 289.206 442.685 290.488 436.653L341.342 197.405L341.344 197.391C341.828 195.117 342.317 192.815 342.57 190.643C347.627 156.077 334.945 121.825 310.491 96.1537L310.491 96.1536L310.483 96.1455L310.129 96.4986L310.483 96.1454L310.483 96.1452L310.482 96.1445L310.479 96.1417L310.468 96.1307L310.425 96.0877L310.262 95.9237L309.673 95.333C309.182 94.8411 308.521 94.1781 307.839 93.4934C306.474 92.1224 305.027 90.6683 304.689 90.3226L304.687 90.3209C294.101 79.5943 282.023 70.0233 268.538 62.1802L268.537 62.1797C253.978 53.7555 239.219 45.2881 223.667 36.652ZM453.784 563.87L453.798 563.878L453.813 563.885C462.488 567.99 473.073 563.852 474.877 555.369L540.53 246.495C541.928 239.917 538.431 233.121 531.99 229.491L531.984 229.488L401.413 158.365L401.413 158.365C395.627 155.225 388.245 157.837 386.963 163.869L336.109 403.118L336.106 403.131C335.623 405.405 335.134 407.707 334.88 409.88C329.823 444.445 342.506 478.697 366.96 504.369L366.968 504.377L367.322 504.024L366.968 504.377L366.968 504.377L366.969 504.378L366.971 504.38L366.982 504.391L367.025 504.435L367.189 504.599L367.778 505.189L368.402 505.815C368.773 506.187 369.188 506.604 369.611 507.029C370.977 508.4 372.424 509.854 372.762 510.2L372.763 510.201C383.349 520.928 395.428 530.499 408.913 538.342L408.914 538.343C423.473 546.767 438.232 555.234 453.784 563.87Z" stroke="url(#paint1_linear_883_10945)"/>
<path opacity="0.7" d="M210.029 43.0347L210.015 43.0276L210 43.0214C201.122 39.3763 190.767 44.0626 189.41 52.6284L140.012 364.515C138.96 371.157 142.808 377.761 149.43 381.049L149.437 381.052L283.551 445.243L283.551 445.244C289.493 448.076 296.729 445.081 297.693 438.99L335.956 197.408L335.958 197.394C336.322 195.099 336.69 192.775 336.829 190.591C340.07 155.809 325.612 122.267 299.849 97.9109L299.849 97.9108L299.84 97.9031L299.505 98.2742L299.84 97.903L299.84 97.9029L299.839 97.9022L299.836 97.8996L299.825 97.8892L299.78 97.8484L299.608 97.6932L298.989 97.1341C298.473 96.6686 297.778 96.0411 297.061 95.393C295.626 94.0954 294.105 92.719 293.749 92.3915L293.748 92.3898C282.615 82.232 270.052 73.3063 256.175 66.1796L256.174 66.1791C241.194 58.5285 226.012 50.8451 210.029 43.0347ZM467.423 557.487L467.438 557.494L467.453 557.5C476.331 561.146 486.686 556.459 488.042 547.893L537.44 236.007C538.492 229.365 534.645 222.761 528.023 219.473L528.016 219.47L393.902 155.279L393.901 155.278C387.96 152.446 380.724 155.441 379.76 161.531L341.497 403.114L341.495 403.127C341.131 405.423 340.763 407.747 340.624 409.931C337.382 444.713 351.841 478.255 377.604 502.611L377.613 502.619L377.948 502.248L377.613 502.619L377.613 502.619L377.614 502.62L377.617 502.622L377.628 502.633L377.673 502.673L377.845 502.829L378.464 503.388L379.12 503.98C379.51 504.332 379.946 504.727 380.391 505.129C381.827 506.426 383.348 507.803 383.703 508.13L383.705 508.132C394.838 518.29 407.401 527.216 421.278 534.342L421.279 534.343C436.259 541.993 451.441 549.677 467.423 557.487Z" stroke="url(#paint2_linear_883_10945)"/>
<path opacity="0.7" d="M196.743 50.1229L196.728 50.1165L196.712 50.1111C187.656 46.9357 177.56 52.1574 176.654 60.7825L143.646 374.827C142.944 381.515 147.131 387.909 153.917 390.845L153.923 390.848L291.213 447.932L291.214 447.933C297.295 450.45 304.364 447.081 305.009 440.948L330.576 197.694L330.577 197.68C330.82 195.369 331.066 193.029 331.091 190.841C332.508 155.937 316.314 123.198 289.311 100.223L289.311 100.223L289.302 100.216L288.987 100.604L289.302 100.216L289.302 100.216L289.301 100.215L289.298 100.212L289.286 100.203L289.239 100.164L289.059 100.018L288.411 99.4924C287.872 99.0545 287.146 98.4642 286.396 97.8545C284.894 96.6338 283.303 95.3389 282.931 95.0304L282.929 95.0289C271.28 85.4675 258.267 77.2116 244.036 70.821L244.035 70.8206C228.675 63.9644 213.112 57.0861 196.743 50.1229ZM480.708 550.399L480.723 550.406L480.739 550.411C489.795 553.587 499.89 548.365 500.797 539.74L533.804 225.695C534.507 219.008 530.319 212.614 523.534 209.677L523.527 209.674L386.238 152.59L386.237 152.589C380.155 150.072 373.086 153.441 372.442 159.574L346.875 402.828L346.873 402.841C346.63 405.153 346.384 407.493 346.36 409.681C344.943 444.586 361.137 477.324 388.14 500.299L388.149 500.306L388.464 499.918L388.149 500.306L388.149 500.307L388.15 500.307L388.153 500.31L388.165 500.32L388.212 500.358L388.392 500.504L389.04 501.03L389.725 501.587C390.134 501.918 390.59 502.289 391.055 502.668C392.557 503.888 394.148 505.183 394.52 505.492L394.522 505.493C406.171 515.055 419.183 523.311 433.415 529.701L433.416 529.702C448.776 536.558 464.339 543.436 480.708 550.399Z" stroke="url(#paint3_linear_883_10945)"/>
<path opacity="0.7" d="M183.846 57.8965L183.831 57.8909L183.815 57.8863C174.605 55.1892 164.797 60.9322 164.343 69.5928L147.817 384.934C147.465 391.65 151.981 397.816 158.911 400.393L158.918 400.396L299.007 450.217L299.008 450.217C305.213 452.413 312.096 448.678 312.419 442.52L325.22 198.261L325.22 198.247C325.342 195.926 325.465 193.576 325.375 191.391C324.963 156.46 307.078 124.613 278.91 103.083L278.91 103.083L278.9 103.076L278.606 103.481L278.9 103.076L278.9 103.076L278.899 103.076L278.896 103.073L278.884 103.064L278.834 103.028L278.647 102.892L277.973 102.401C277.412 101.992 276.655 101.44 275.874 100.871C274.311 99.7302 272.655 98.5203 272.267 98.2317L272.265 98.2302C260.131 89.2917 246.704 81.7281 232.158 76.0911L232.157 76.0907C216.459 70.0478 200.558 63.9934 183.846 57.8965ZM493.605 542.626L493.62 542.631L493.636 542.636C502.846 545.333 512.655 539.59 513.109 530.929L529.635 215.588C529.987 208.872 525.47 202.706 518.54 200.129L518.534 200.126L378.445 150.305L378.444 150.305C372.239 148.109 365.356 151.844 365.033 158.002L352.232 402.261L352.231 402.274C352.11 404.596 351.986 406.946 352.076 409.132C352.489 444.062 370.373 475.909 398.542 497.439L398.551 497.446L398.846 497.041L398.551 497.446L398.551 497.446L398.552 497.446L398.555 497.449L398.568 497.458L398.617 497.494L398.804 497.63L399.478 498.121L400.192 498.642C400.617 498.952 401.093 499.298 401.577 499.651C403.14 500.792 404.797 502.002 405.185 502.29L405.187 502.292C417.32 511.23 430.747 518.794 445.293 524.431L445.294 524.431C460.992 530.474 476.894 536.529 493.605 542.626Z" stroke="url(#paint4_linear_883_10945)"/>
<path opacity="0.7" d="M171.375 66.3343L171.359 66.3295L171.343 66.3258C162.005 64.1143 152.51 70.3628 152.51 79.0354L152.51 394.809C152.51 401.534 157.343 407.455 164.399 409.667L164.406 409.669L306.91 452.09L306.911 452.09C313.222 453.958 319.9 449.868 319.9 443.701L319.9 199.108L319.9 199.094C319.9 196.77 319.9 194.416 319.696 192.238C317.456 157.377 297.929 126.51 268.673 106.484L268.673 106.484L268.663 106.478L268.39 106.897L268.663 106.478L268.663 106.477L268.662 106.477L268.659 106.475L268.646 106.466L268.595 106.433L268.4 106.307L267.702 105.851C267.12 105.472 266.335 104.961 265.526 104.433C263.905 103.376 262.187 102.255 261.785 101.987L261.783 101.985C249.198 93.694 235.394 86.8435 220.572 81.9755L220.571 81.9752C204.579 76.7621 188.382 71.5483 171.375 66.3343ZM506.078 534.188L506.093 534.192L506.109 534.196C515.448 536.408 524.942 530.159 524.942 521.487L524.942 205.712C524.942 198.988 520.109 193.067 513.054 190.855L513.047 190.853L370.542 148.432L370.542 148.432C364.23 146.564 357.552 150.654 357.552 156.82L357.552 401.415L357.552 401.428C357.552 403.752 357.552 406.105 357.756 408.284C359.996 443.145 379.523 474.012 408.78 494.038L408.789 494.044L409.062 493.625L408.789 494.044L408.79 494.044L408.791 494.045L408.794 494.047L408.807 494.056L408.858 494.089L409.052 494.215L409.751 494.671L410.491 495.153C410.932 495.44 411.424 495.761 411.927 496.089C413.548 497.146 415.265 498.267 415.667 498.535L415.669 498.537C428.254 506.828 442.059 513.678 456.88 518.546L456.881 518.547C472.873 523.76 489.07 528.974 506.078 534.188Z" stroke="url(#paint5_linear_883_10945)"/>
<path opacity="0.7" d="M159.36 75.4135L159.344 75.4096L159.328 75.4067C149.887 73.687 140.732 80.4238 141.186 89.0845L157.712 404.426C158.064 411.141 163.201 416.801 170.362 418.64L170.369 418.642L314.898 453.547L314.899 453.547C321.3 455.082 327.755 450.648 327.432 444.49L314.631 200.232L314.63 200.218C314.509 197.897 314.385 195.547 314.068 193.383C310.006 158.686 288.89 128.884 258.626 110.416L258.626 110.416L258.616 110.41L258.365 110.843L258.616 110.41L258.616 110.41L258.615 110.41L258.611 110.408L258.598 110.4L258.545 110.369L258.345 110.253L257.623 109.835C257.022 109.487 256.212 109.018 255.376 108.533C253.702 107.562 251.928 106.532 251.512 106.285L251.51 106.284C238.509 98.6628 224.365 92.5441 209.309 88.4585L209.308 88.4583C193.065 84.0893 176.617 79.7303 159.36 75.4135ZM518.09 525.109L518.106 525.113L518.122 525.116C527.563 526.835 536.718 520.098 536.264 511.438L519.738 196.096C519.386 189.381 514.249 183.721 507.088 181.882L507.081 181.88L362.552 146.975L362.551 146.975C356.15 145.44 349.695 149.874 350.018 156.032L362.819 400.291L362.82 400.304C362.941 402.625 363.065 404.975 363.382 407.14C367.444 441.836 388.56 471.639 418.824 490.106L418.834 490.112L419.085 489.679L418.834 490.112L418.834 490.112L418.835 490.113L418.839 490.115L418.852 490.122L418.905 490.153L419.105 490.269L419.827 490.687L420.591 491.13C421.046 491.394 421.555 491.689 422.074 491.99C423.748 492.96 425.522 493.99 425.938 494.237L425.94 494.238C438.941 501.859 453.085 507.978 468.141 512.064L468.142 512.064C484.385 516.433 500.833 520.792 518.09 525.109Z" stroke="url(#paint6_linear_883_10945)"/>
<path opacity="0.7" d="M147.839 85.1089L147.823 85.1058L147.807 85.1037C138.288 83.8806 129.499 91.0872 130.405 99.7123L163.413 413.756C164.116 420.444 169.541 425.828 176.789 427.29L176.796 427.291L322.954 454.584L322.955 454.584C329.427 455.782 335.641 451.016 334.997 444.884L309.43 201.63L309.428 201.616C309.185 199.305 308.939 196.964 308.509 194.819C302.637 160.383 279.99 131.727 248.801 114.868L248.801 114.868L248.79 114.863L248.563 115.308L248.79 114.863L248.79 114.863L248.789 114.862L248.786 114.861L248.772 114.853L248.718 114.826L248.512 114.72L247.769 114.341C247.15 114.024 246.317 113.598 245.457 113.158C243.734 112.276 241.909 111.34 241.481 111.116L241.479 111.114C228.096 104.184 213.651 98.8139 198.402 95.5219L198.401 95.5217C181.951 92.0088 165.298 88.5166 147.839 85.1089ZM529.613 515.413L529.629 515.416L529.645 515.418C539.163 516.642 547.953 509.435 547.046 500.81L514.039 186.766C513.336 180.078 507.91 174.694 500.662 173.233L500.655 173.231L354.497 145.938L354.496 145.938C348.024 144.74 341.81 149.506 342.455 155.638L368.022 398.893L368.023 398.906C368.266 401.217 368.512 403.558 368.943 405.703C374.815 440.139 397.461 468.796 428.651 485.654L428.661 485.659L428.889 485.214L428.661 485.659L428.661 485.659L428.662 485.66L428.666 485.662L428.68 485.669L428.734 485.696L428.94 485.802L429.683 486.182L430.469 486.584C430.937 486.823 431.461 487.091 431.995 487.365C433.717 488.246 435.543 489.182 435.971 489.407L435.973 489.408C449.355 496.338 463.8 501.708 479.049 505L479.05 505C495.5 508.513 512.153 512.006 529.613 515.413Z" stroke="url(#paint7_linear_883_10945)"/>
<path opacity="0.7" d="M136.841 95.394L136.824 95.3917L136.808 95.3905C127.239 94.6672 118.839 102.324 120.195 110.89L169.593 422.776C170.645 429.418 176.345 434.51 183.659 435.591L183.667 435.592L331.053 455.198L331.053 455.198C337.58 456.056 343.535 450.971 342.571 444.881L304.308 203.299L304.306 203.285C303.942 200.989 303.574 198.665 303.032 196.545C295.366 162.464 271.251 135.032 239.221 119.829L239.221 119.829L239.211 119.824L239.007 120.28L239.211 119.824L239.211 119.824L239.21 119.823L239.206 119.822L239.192 119.815L239.136 119.791L238.925 119.696L238.163 119.356C237.529 119.072 236.675 118.69 235.792 118.295C234.026 117.505 232.154 116.666 231.715 116.464L231.713 116.463C217.986 110.243 203.28 105.636 187.879 103.146L187.878 103.146C171.267 100.499 154.454 97.8832 136.841 95.394ZM540.611 505.128L540.627 505.13L540.644 505.132C550.213 505.855 558.613 498.198 557.257 489.632L507.859 177.746C506.807 171.104 501.107 166.012 493.792 164.931L493.785 164.931L346.399 145.324L346.398 145.324C339.872 144.466 333.916 149.551 334.881 155.641L373.144 397.224L373.146 397.237C373.51 399.533 373.878 401.857 374.42 403.977C382.086 438.058 406.201 465.491 438.23 480.694L438.241 480.698L438.445 480.242L438.241 480.698L438.241 480.698L438.242 480.699L438.246 480.7L438.26 480.707L438.315 480.732L438.527 480.826L439.288 481.166L440.095 481.527C440.575 481.742 441.112 481.982 441.659 482.227C443.426 483.017 445.298 483.856 445.737 484.058L445.739 484.059C459.466 490.279 474.172 494.886 489.572 497.376L489.573 497.376C506.184 500.023 522.998 502.639 540.611 505.128Z" stroke="url(#paint8_linear_883_10945)"/>
<path opacity="0.7" d="M126.395 106.241L126.379 106.239L126.362 106.239C116.768 106.017 108.78 114.103 110.583 122.586L176.236 431.46C177.635 438.038 183.593 442.825 190.954 443.521L190.961 443.521L339.171 455.387L339.172 455.387C345.734 455.902 351.416 450.513 350.134 444.481L299.28 205.233L299.277 205.219C298.794 202.946 298.305 200.644 297.652 198.556C288.213 164.922 262.695 138.79 229.914 125.284L229.914 125.284L229.903 125.279L229.724 125.746L229.903 125.279L229.903 125.279L229.902 125.279L229.899 125.278L229.884 125.272L229.827 125.25L229.611 125.167L228.833 124.867C228.185 124.617 227.311 124.28 226.41 123.932C224.604 123.235 222.691 122.495 222.242 122.317L222.24 122.316C208.206 116.822 193.279 112.991 177.769 111.311L177.768 111.311C161.042 109.537 144.115 107.805 126.395 106.241ZM551.056 494.282L551.072 494.283L551.089 494.283C560.683 494.505 568.671 486.419 566.868 477.936L501.214 169.062C499.816 162.485 493.858 157.698 486.497 157.002L486.49 157.001L338.279 145.135L338.279 145.135C331.717 144.62 326.035 150.009 327.317 156.041L378.171 395.29L378.174 395.303C378.657 397.577 379.146 399.878 379.799 401.967C389.238 435.601 414.756 461.733 447.537 475.239L447.547 475.243L447.727 474.776L447.548 475.243L447.548 475.243L447.549 475.243L447.552 475.245L447.567 475.25L447.624 475.272L447.84 475.356L448.618 475.656L449.442 475.973C449.933 476.163 450.482 476.374 451.041 476.59C452.846 477.287 454.76 478.027 455.209 478.206L455.211 478.207C469.245 483.7 484.172 487.531 499.681 489.211L499.682 489.211C516.409 490.985 533.336 492.718 551.056 494.282Z" stroke="url(#paint9_linear_883_10945)"/>
<path opacity="0.7" d="M116.531 117.619L116.515 117.619L116.498 117.619C106.906 117.9 99.3519 126.393 101.597 134.77L183.325 439.784C185.065 446.28 191.266 450.748 198.654 451.058L198.661 451.058L347.289 455.151L347.29 455.151C353.87 455.322 359.262 449.643 357.666 443.687L294.36 207.427L294.356 207.414C293.755 205.169 293.146 202.896 292.385 200.845C281.199 167.751 254.348 142.99 220.905 131.218L220.905 131.218L220.894 131.215L220.739 131.69L220.894 131.214L220.894 131.214L220.893 131.214L220.889 131.213L220.874 131.208L220.817 131.189L220.596 131.117L219.803 130.858C219.143 130.643 218.253 130.352 217.335 130.052C215.495 129.45 213.546 128.811 213.088 128.657L213.086 128.656C198.784 123.904 183.677 120.86 168.101 119.994L168.099 119.994C151.303 119.098 134.308 118.254 116.531 117.619ZM560.919 482.903L560.935 482.904L560.951 482.903C570.544 482.622 578.098 474.129 575.853 465.752L494.125 160.738C492.384 154.242 486.183 149.774 478.796 149.464L478.789 149.464L330.161 145.371L330.16 145.371C323.58 145.2 318.188 150.879 319.784 156.836L383.09 393.095L383.093 393.108C383.695 395.353 384.304 397.626 385.065 399.678C396.251 432.771 423.102 457.532 456.545 469.304L456.556 469.308L456.711 468.832L456.556 469.308L456.556 469.308L456.557 469.308L456.561 469.309L456.575 469.314L456.633 469.333L456.853 469.405L457.646 469.664L458.486 469.938C458.986 470.101 459.545 470.284 460.115 470.471C461.954 471.072 463.904 471.711 464.361 471.865L464.364 471.866C478.666 476.618 493.773 479.662 509.349 480.528L509.35 480.528C526.147 481.425 543.141 482.269 560.919 482.903Z" stroke="url(#paint10_linear_883_10945)"/>
</g>
<defs>
<linearGradient id="paint0_linear_883_10945" x1="60.8096" y1="74.1767" x2="491.393" y2="-23.8433" gradientUnits="userSpaceOnUse">
<stop stop-color="#4895FF"/>
<stop offset="0.317708" stop-color="#00FFCE"/>
<stop offset="0.671875" stop-color="#847BE7"/>
<stop offset="0.890625" stop-color="#D629F7"/>
<stop offset="1" stop-color="#FF00FF"/>
</linearGradient>
<linearGradient id="paint1_linear_883_10945" x1="49.3574" y1="89.0316" x2="474.223" y2="-31.3895" gradientUnits="userSpaceOnUse">
<stop stop-color="#4895FF"/>
<stop offset="0.317708" stop-color="#00FFCE"/>
<stop offset="0.671875" stop-color="#847BE7"/>
<stop offset="0.890625" stop-color="#D629F7"/>
<stop offset="1" stop-color="#FF00FF"/>
</linearGradient>
<linearGradient id="paint2_linear_883_10945" x1="38.7002" y1="104.465" x2="456.681" y2="-38.0265" gradientUnits="userSpaceOnUse">
<stop stop-color="#4895FF"/>
<stop offset="0.317708" stop-color="#00FFCE"/>
<stop offset="0.671875" stop-color="#847BE7"/>
<stop offset="0.890625" stop-color="#D629F7"/>
<stop offset="1" stop-color="#FF00FF"/>
</linearGradient>
<linearGradient id="paint3_linear_883_10945" x1="28.8633" y1="120.436" x2="438.814" y2="-43.736" gradientUnits="userSpaceOnUse">
<stop stop-color="#4895FF"/>
<stop offset="0.317708" stop-color="#00FFCE"/>
<stop offset="0.671875" stop-color="#847BE7"/>
<stop offset="0.890625" stop-color="#D629F7"/>
<stop offset="1" stop-color="#FF00FF"/>
</linearGradient>
<linearGradient id="paint4_linear_883_10945" x1="19.877" y1="136.899" x2="420.673" y2="-48.5028" gradientUnits="userSpaceOnUse">
<stop stop-color="#4895FF"/>
<stop offset="0.317708" stop-color="#00FFCE"/>
<stop offset="0.671875" stop-color="#847BE7"/>
<stop offset="0.890625" stop-color="#D629F7"/>
<stop offset="1" stop-color="#FF00FF"/>
</linearGradient>
<linearGradient id="paint5_linear_883_10945" x1="11.7646" y1="153.81" x2="402.309" y2="-52.3138" gradientUnits="userSpaceOnUse">
<stop stop-color="#4895FF"/>
<stop offset="0.317708" stop-color="#00FFCE"/>
<stop offset="0.671875" stop-color="#847BE7"/>
<stop offset="0.890625" stop-color="#D629F7"/>
<stop offset="1" stop-color="#FF00FF"/>
</linearGradient>
<linearGradient id="paint6_linear_883_10945" x1="4.54688" y1="171.123" x2="383.768" y2="-55.1581" gradientUnits="userSpaceOnUse">
<stop stop-color="#4895FF"/>
<stop offset="0.317708" stop-color="#00FFCE"/>
<stop offset="0.671875" stop-color="#847BE7"/>
<stop offset="0.890625" stop-color="#D629F7"/>
<stop offset="1" stop-color="#FF00FF"/>
</linearGradient>
<linearGradient id="paint7_linear_883_10945" x1="-1.75293" y1="188.789" x2="365.106" y2="-57.0284" gradientUnits="userSpaceOnUse">
<stop stop-color="#4895FF"/>
<stop offset="0.317708" stop-color="#00FFCE"/>
<stop offset="0.671875" stop-color="#847BE7"/>
<stop offset="0.890625" stop-color="#D629F7"/>
<stop offset="1" stop-color="#FF00FF"/>
</linearGradient>
<linearGradient id="paint8_linear_883_10945" x1="-7.12012" y1="206.762" x2="346.371" y2="-57.9194" gradientUnits="userSpaceOnUse">
<stop stop-color="#4895FF"/>
<stop offset="0.317708" stop-color="#00FFCE"/>
<stop offset="0.671875" stop-color="#847BE7"/>
<stop offset="0.890625" stop-color="#D629F7"/>
<stop offset="1" stop-color="#FF00FF"/>
</linearGradient>
<linearGradient id="paint9_linear_883_10945" x1="-11.54" y1="224.99" x2="327.614" y2="-57.8284" gradientUnits="userSpaceOnUse">
<stop stop-color="#4895FF"/>
<stop offset="0.317708" stop-color="#00FFCE"/>
<stop offset="0.671875" stop-color="#847BE7"/>
<stop offset="0.890625" stop-color="#D629F7"/>
<stop offset="1" stop-color="#FF00FF"/>
</linearGradient>
<linearGradient id="paint10_linear_883_10945" x1="-15" y1="243.425" x2="308.888" y2="-56.7562" gradientUnits="userSpaceOnUse">
<stop stop-color="#4895FF"/>
<stop offset="0.317708" stop-color="#00FFCE"/>
<stop offset="0.671875" stop-color="#847BE7"/>
<stop offset="0.890625" stop-color="#D629F7"/>
<stop offset="1" stop-color="#FF00FF"/>
</linearGradient>
</defs>
</svg>
