<svg viewBox="0 0 397 538" fill="none" xmlns="http://www.w3.org/2000/svg">
<path opacity="0.7" d="M144.473 4.12619L144.461 4.11553L144.448 4.10568C137.262 -1.37246 126.696 0.361387 123.37 7.83097L2.63918 278.997C0.0618993 284.786 1.95411 291.732 7.17538 296.335L7.18084 296.34L113.335 387.253L113.336 387.253C118.053 391.28 125.377 390.324 127.745 385.005L221.261 174.965L221.266 174.952C222.155 172.957 223.055 170.935 223.713 168.985C235.121 138.183 230.152 104.201 212.681 75.8113L212.681 75.8112L212.675 75.8015L212.255 76.0733L212.675 75.8015L212.675 75.8013L212.674 75.8005L212.672 75.7974L212.664 75.7851L212.633 75.7371L212.515 75.5544L212.089 74.8962C211.734 74.3481 211.256 73.6093 210.763 72.8464C209.775 71.3189 208.729 69.6993 208.486 69.3156L208.484 69.3135C200.846 57.3799 191.61 46.2171 180.741 36.3682L180.74 36.3675C169 25.7764 157.084 15.1064 144.473 4.12619ZM252.979 533.901L252.991 533.912L253.004 533.922C260.189 539.4 270.756 537.666 274.081 530.196L394.812 259.03C397.39 253.242 395.497 246.296 390.276 241.692L390.271 241.687L284.116 150.775L284.115 150.774C279.398 146.747 272.075 147.704 269.707 153.022L176.19 363.063L176.185 363.076C175.297 365.071 174.396 367.093 173.738 369.042C162.33 399.845 167.299 433.827 184.77 462.216L184.776 462.226L185.196 461.954L184.776 462.226L184.777 462.226L184.777 462.227L184.779 462.23L184.787 462.242L184.818 462.29L184.936 462.473L185.363 463.131C185.717 463.679 186.195 464.418 186.689 465.181C187.677 466.709 188.723 468.328 188.966 468.712L188.967 468.714C196.605 480.648 205.842 491.81 216.711 501.659L216.711 501.66C228.451 512.251 240.367 522.921 252.979 533.901Z" stroke="url(#paint0_linear_1294_162)"/>
<defs>
<linearGradient id="paint0_linear_1294_162" x1="-26.0545" y1="18.2433" x2="388.127" y2="-9.44461" gradientUnits="userSpaceOnUse">
<stop stop-color="#4895FF"/>
<stop offset="0.317708" stop-color="#00FFCE"/>
<stop offset="0.671875" stop-color="#847BE7"/>
<stop offset="0.890625" stop-color="#D629F7"/>
<stop offset="1" stop-color="#FF00FF"/>
</linearGradient>
</defs>
</svg>
