<svg viewBox="0 0 394 530" fill="none" xmlns="http://www.w3.org/2000/svg">
<path opacity="0.7" d="M128.684 3.32875L128.671 3.31873L128.658 3.30957C121.195 -1.78501 110.734 0.499473 107.804 8.13287L1.43015 285.246C-0.840641 291.161 1.41252 297.999 6.86756 302.323L6.87326 302.327L117.64 387.56L117.641 387.56C122.562 391.335 129.826 389.996 131.912 384.562L214.307 169.914L214.313 169.901C215.095 167.862 215.888 165.796 216.443 163.815C226.224 132.457 219.483 98.7822 200.55 71.3458L200.55 71.3458L200.544 71.3364L200.139 71.6298L200.544 71.3364L200.543 71.3362L200.543 71.3354L200.541 71.3324L200.532 71.3206L200.499 71.2743L200.371 71.098L199.911 70.463C199.528 69.9342 199.012 69.2215 198.479 68.4854C197.413 67.0117 196.283 65.4491 196.021 65.0786L196.019 65.0766C187.767 53.5591 177.959 42.8951 166.59 33.6285L166.589 33.6278C154.31 23.6656 141.853 13.6338 128.684 3.32875ZM264.767 526.699L264.78 526.709L264.793 526.718C272.256 531.813 282.717 529.528 285.647 521.895L392.021 244.782C394.292 238.866 392.038 232.029 386.583 227.705L386.578 227.7L275.811 142.468L275.81 142.468C270.889 138.693 263.625 140.031 261.539 145.466L179.143 360.114L179.138 360.127C178.356 362.166 177.563 364.232 177.008 366.213C167.227 397.571 173.968 431.246 192.901 458.682L192.907 458.691L193.312 458.398L192.907 458.691L192.907 458.692L192.908 458.692L192.91 458.695L192.919 458.707L192.952 458.753L193.08 458.93L193.54 459.565C193.923 460.094 194.439 460.806 194.972 461.542C196.038 463.016 197.167 464.579 197.43 464.949L197.432 464.951C205.684 476.469 215.492 487.133 226.861 496.399L226.862 496.4C239.14 506.362 251.598 516.394 264.767 526.699Z" stroke="url(#paint0_linear_1294_165)"/>
<defs>
<linearGradient id="paint0_linear_1294_165" x1="-40.8709" y1="26.3512" x2="371.294" y2="-22.9753" gradientUnits="userSpaceOnUse">
<stop stop-color="#4895FF"/>
<stop offset="0.317708" stop-color="#00FFCE"/>
<stop offset="0.671875" stop-color="#847BE7"/>
<stop offset="0.890625" stop-color="#D629F7"/>
<stop offset="1" stop-color="#FF00FF"/>
</linearGradient>
</defs>
</svg>
