<svg viewBox="0 0 397 542" fill="none" xmlns="http://www.w3.org/2000/svg">
<path opacity="0.7" d="M153.751 4.39434L153.739 4.38325L153.726 4.37295C146.736 -1.35261 136.116 0.0114133 132.531 7.36038L2.4105 274.148C-0.367234 279.843 1.28141 286.851 6.33883 291.634L6.34413 291.639L109.261 386.201L109.262 386.201C113.835 390.391 121.188 389.69 123.74 384.458L224.53 177.809L224.536 177.796C225.493 175.833 226.463 173.844 227.189 171.918C239.666 141.533 235.885 107.398 219.416 78.4162L219.416 78.4161L219.41 78.4062L218.981 78.6632L219.41 78.4062L219.41 78.406L219.409 78.4052L219.407 78.402L219.4 78.3895L219.37 78.3404L219.258 78.1536L218.856 77.481C218.52 76.9209 218.068 76.1658 217.602 75.3862C216.668 73.8251 215.679 72.17 215.45 71.7781L215.448 71.7759C208.231 59.583 199.39 48.1047 188.871 37.8825L188.871 37.8817C177.507 26.8873 165.971 15.808 153.751 4.39434ZM243.701 537.633L243.713 537.645L243.726 537.655C250.716 543.38 261.336 542.016 264.921 534.667L395.041 267.88C397.819 262.185 396.171 255.177 391.113 250.394L391.108 250.389L288.191 155.827L288.19 155.827C283.617 151.637 276.264 152.338 273.712 157.57L172.922 364.22L172.916 364.232C171.959 366.195 170.989 368.184 170.263 370.109C157.786 400.495 161.567 434.63 178.036 463.612L178.042 463.622L178.471 463.365L178.042 463.622L178.042 463.622L178.043 463.623L178.045 463.626L178.052 463.638L178.082 463.687L178.194 463.874L178.596 464.547C178.932 465.107 179.384 465.862 179.85 466.642C180.784 468.203 181.773 469.858 182.002 470.25L182.004 470.252C189.221 482.445 198.062 493.923 208.581 504.145L208.581 504.146C219.945 515.14 231.481 526.22 243.701 537.633Z" stroke="url(#paint0_linear_1294_160)"/>
<defs>
<linearGradient id="paint0_linear_1294_160" x1="-17.1655" y1="12.5515" x2="397.73" y2="-0.664793" gradientUnits="userSpaceOnUse">
<stop stop-color="#4895FF"/>
<stop offset="0.317708" stop-color="#00FFCE"/>
<stop offset="0.671875" stop-color="#847BE7"/>
<stop offset="0.890625" stop-color="#D629F7"/>
<stop offset="1" stop-color="#FF00FF"/>
</linearGradient>
</defs>
</svg>
