<svg viewBox="0 0 396 536" fill="none" xmlns="http://www.w3.org/2000/svg">
<path opacity="0.7" d="M138.858 4.11329L138.846 4.10284L138.832 4.09322C131.553 -1.25869 121.018 0.65931 117.823 8.1858L1.84308 281.418C-0.632778 287.25 1.38038 294.163 6.68119 298.674L6.68673 298.679L114.412 387.725L114.412 387.725C119.199 391.67 126.505 390.585 128.78 385.226L218.616 173.586L218.621 173.573C219.475 171.562 220.339 169.525 220.963 167.564C231.832 136.567 226.271 102.677 208.307 74.597L208.307 74.597L208.301 74.5874L207.886 74.8665L208.301 74.5874L208.3 74.5872L208.3 74.5864L208.298 74.5833L208.29 74.5712L208.258 74.5238L208.136 74.3431L207.699 73.6924C207.335 73.1506 206.844 72.4203 206.337 71.6661C205.323 70.156 204.248 68.555 203.999 68.1756L203.998 68.1735C196.152 56.375 186.722 45.3752 175.683 35.7174L175.682 35.7167C163.759 25.3321 151.659 14.8717 138.858 4.11329ZM256.593 531.914L256.606 531.924L256.619 531.934C263.898 537.286 274.433 535.368 277.628 527.841L393.608 254.61C396.084 248.777 394.071 241.865 388.77 237.353L388.764 237.349L281.039 148.302L281.039 148.302C276.252 144.358 268.946 145.442 266.672 150.801L176.835 362.442L176.83 362.455C175.976 364.465 175.112 366.502 174.488 368.463C163.619 399.46 169.18 433.35 187.144 461.43L187.15 461.44L187.565 461.161L187.15 461.44L187.151 461.44L187.151 461.441L187.153 461.444L187.161 461.456L187.193 461.504L187.315 461.684L187.752 462.335C188.117 462.877 188.607 463.607 189.114 464.361C190.128 465.871 191.203 467.472 191.452 467.852L191.453 467.854C199.299 479.652 208.729 490.652 219.768 500.31L219.769 500.311C231.692 510.695 243.792 521.156 256.593 531.914Z" stroke="url(#paint0_linear_1294_163)"/>
<defs>
<linearGradient id="paint0_linear_1294_163" x1="-31.397" y1="21.2043" x2="382.238" y2="-13.7078" gradientUnits="userSpaceOnUse">
<stop stop-color="#4895FF"/>
<stop offset="0.317708" stop-color="#00FFCE"/>
<stop offset="0.671875" stop-color="#847BE7"/>
<stop offset="0.890625" stop-color="#D629F7"/>
<stop offset="1" stop-color="#FF00FF"/>
</linearGradient>
</defs>
</svg>
