<svg viewBox="0 0 398 544" fill="none" xmlns="http://www.w3.org/2000/svg">
<path opacity="0.7" d="M158.411 4.64996L158.399 4.63866L158.387 4.62815C151.498 -1.21853 140.855 -0.040066 137.143 7.24523L2.38572 271.721C-0.490984 277.367 1.0351 284.403 6.00828 289.273L6.01349 289.278L107.265 385.622L107.265 385.622C111.765 389.891 119.129 389.319 121.772 384.132L226.152 179.273L226.159 179.261C227.15 177.315 228.155 175.343 228.914 173.43C241.919 143.267 238.735 109.072 222.774 79.8065L222.774 79.8065L222.768 79.7965L222.335 80.0459L222.768 79.7964L222.768 79.7962L222.767 79.7954L222.766 79.7922L222.758 79.7795L222.73 79.73L222.621 79.5413L222.23 78.8617C221.905 78.2958 221.466 77.533 221.013 76.7453C220.106 75.1682 219.147 73.4961 218.924 73.1002L218.923 73.098C211.92 60.781 203.28 49.1502 192.942 38.7459L192.941 38.7451C181.771 27.5541 170.43 16.2751 158.411 4.64996ZM239.041 539.378L239.053 539.389L239.066 539.4C245.954 545.246 256.597 544.068 260.309 536.782L395.066 272.307C397.943 266.661 396.417 259.625 391.444 254.755L391.439 254.75L290.188 158.406L290.187 158.405C285.687 154.137 278.323 154.709 275.68 159.896L171.299 364.755L171.293 364.767C170.302 366.713 169.297 368.685 168.538 370.597C155.533 400.761 158.717 434.956 174.678 464.221L174.684 464.231L175.117 463.982L174.684 464.231L174.684 464.231L174.685 464.232L174.686 464.235L174.694 464.248L174.722 464.298L174.831 464.486L175.222 465.166C175.547 465.732 175.986 466.495 176.439 467.282C177.346 468.86 178.305 470.532 178.528 470.927L178.529 470.93C185.532 483.247 194.172 494.878 204.51 505.282L204.511 505.283C215.681 516.474 227.022 527.753 239.041 539.378Z" stroke="url(#paint0_linear_1294_159)"/>
<defs>
<linearGradient id="paint0_linear_1294_159" x1="-12.6218" y1="9.823" x2="402.441" y2="3.84963" gradientUnits="userSpaceOnUse">
<stop stop-color="#4895FF"/>
<stop offset="0.317708" stop-color="#00FFCE"/>
<stop offset="0.671875" stop-color="#847BE7"/>
<stop offset="0.890625" stop-color="#D629F7"/>
<stop offset="1" stop-color="#FF00FF"/>
</linearGradient>
</defs>
</svg>
