<svg viewBox="0 0 398 548" fill="none" xmlns="http://www.w3.org/2000/svg">
<g opacity="0.7">
<mask id="path-1-outside-1_1294_154" maskUnits="userSpaceOnUse" x="-0.610252" y="0.12146" fill="black">
<rect fill="white" x="-0.610252" y="0.12146"/>
<path fill-rule="evenodd" clip-rule="evenodd" d="M3.10302 263.696L151.517 6.63531C155.403 -0.0958123 165.691 -0.789784 172.093 5.24738C183.484 17.4825 194.217 29.3371 204.785 41.0965C214.533 51.9924 222.528 64.0223 228.859 76.652C229.264 77.4715 232.349 83.5449 232.349 83.5449C246.7 113.487 248.073 147.643 233.581 176.93C232.732 178.781 231.634 180.683 230.536 182.585L230.535 182.586L115.576 381.701C112.873 386.383 105.906 386.653 101.807 382.336L5.7371 280.825C1.14823 275.835 0.0616465 268.964 3.10302 263.696ZM394.349 284.332L245.935 541.393C242.049 548.124 231.761 548.818 225.359 542.781C213.968 530.546 203.235 518.691 192.667 506.932C182.919 496.036 174.924 484.006 168.593 471.376C168.188 470.557 165.103 464.483 165.103 464.483C150.751 434.541 149.379 400.386 163.871 371.098C164.72 369.247 165.818 367.345 166.916 365.443L166.917 365.442L281.876 166.327C284.579 161.645 291.546 161.375 295.645 165.692L391.715 267.203C396.304 272.194 397.39 279.064 394.349 284.332Z"/>
</mask>
<path d="M151.517 6.63531L152.383 7.13531L151.517 6.63531ZM3.10302 263.696L3.96905 264.196H3.96905L3.10302 263.696ZM172.093 5.24738L172.824 4.56594L172.802 4.54216L172.779 4.51987L172.093 5.24738ZM204.785 41.0965L205.53 40.4297L205.529 40.4281L204.785 41.0965ZM228.859 76.652L229.755 76.2083L229.753 76.2039L228.859 76.652ZM232.349 83.5449L233.251 83.1126L233.246 83.1023L233.241 83.092L232.349 83.5449ZM233.581 176.93L232.684 176.487L232.678 176.5L232.672 176.514L233.581 176.93ZM230.536 182.585L231.393 183.1L231.397 183.093L231.402 183.085L230.536 182.585ZM230.535 182.586L229.678 182.072L229.673 182.079L229.669 182.086L230.535 182.586ZM115.576 381.701L116.442 382.201L115.576 381.701ZM101.807 382.336L101.081 383.023L101.082 383.024L101.807 382.336ZM5.7371 280.825L5.00098 281.502L5.00585 281.507L5.01079 281.513L5.7371 280.825ZM245.935 541.393L246.801 541.893L245.935 541.393ZM394.349 284.332L393.483 283.832L394.349 284.332ZM225.359 542.781L224.628 543.462L224.65 543.486L224.673 543.508L225.359 542.781ZM192.667 506.932L191.922 507.598L191.923 507.6L192.667 506.932ZM168.593 471.376L167.697 471.82L167.699 471.824L168.593 471.376ZM165.103 464.483L164.201 464.915L164.206 464.926L164.211 464.936L165.103 464.483ZM163.871 371.098L164.767 371.541L164.774 371.528L164.78 371.515L163.871 371.098ZM166.916 365.443L166.061 364.924L166.055 364.934L166.05 364.943L166.916 365.443ZM166.917 365.442L167.772 365.961L167.777 365.952L167.783 365.942L166.917 365.442ZM281.876 166.327L281.01 165.827L281.876 166.327ZM295.645 165.692L296.371 165.005L296.37 165.004L295.645 165.692ZM391.715 267.203L392.451 266.526L392.446 266.521L392.441 266.516L391.715 267.203ZM150.651 6.13531L2.237 263.196L3.96905 264.196L152.383 7.13531L150.651 6.13531ZM172.779 4.51987C166.033 -1.84137 154.941 -1.29567 150.651 6.13531L152.383 7.13531C155.865 1.10405 165.349 0.261806 171.406 5.97488L172.779 4.51987ZM205.529 40.4281C194.959 28.667 184.222 16.8074 172.824 4.56594L171.361 5.92881C182.747 18.1576 193.475 30.0071 204.041 41.7649L205.529 40.4281ZM229.753 76.2039C223.385 63.5002 215.341 51.3958 205.53 40.4297L204.04 41.7633C213.725 52.589 221.671 64.5444 227.965 77.1001L229.753 76.2039ZM232.349 83.5449C233.241 83.092 233.241 83.092 233.241 83.0919C233.241 83.0919 233.241 83.0918 233.241 83.0917C233.24 83.0915 233.24 83.0913 233.24 83.0909C233.24 83.0902 233.239 83.0891 233.238 83.0876C233.237 83.0847 233.235 83.0803 233.232 83.0746C233.226 83.0631 233.217 83.046 233.206 83.0236C233.183 82.979 233.15 82.9133 233.107 82.8295C233.022 82.6619 232.9 82.4215 232.752 82.1304C232.457 81.5483 232.059 80.7637 231.648 79.9535C230.824 78.3293 229.955 76.6125 229.755 76.2083L227.962 77.0956C228.168 77.511 229.044 79.2406 229.864 80.858C230.275 81.6686 230.674 82.4535 230.969 83.0358C231.117 83.3269 231.239 83.5674 231.324 83.7351C231.367 83.8189 231.4 83.8846 231.423 83.9293C231.434 83.9516 231.443 83.9687 231.449 83.9803C231.452 83.986 231.454 83.9904 231.455 83.9933C231.456 83.9948 231.457 83.9959 231.457 83.9966C231.457 83.997 231.457 83.9973 231.457 83.9974C231.457 83.9975 231.458 83.9976 231.458 83.9977C231.458 83.9977 231.458 83.9977 232.349 83.5449ZM234.477 177.374C249.123 147.776 247.718 113.296 233.251 83.1126L231.447 83.9771C245.683 113.679 247.024 147.509 232.684 176.487L234.477 177.374ZM231.402 183.085C232.494 181.192 233.618 179.249 234.49 177.347L232.672 176.514C231.846 178.314 230.773 180.174 229.67 182.085L231.402 183.085ZM231.393 183.101L231.393 183.1L229.678 182.071L229.678 182.072L231.393 183.101ZM116.442 382.201L231.401 183.086L229.669 182.086L114.71 381.201L116.442 382.201ZM101.082 383.024C105.524 387.703 113.324 387.601 116.442 382.201L114.71 381.201C112.421 385.165 106.288 385.603 102.532 381.647L101.082 383.024ZM5.01079 281.513L101.081 383.023L102.533 381.648L6.4634 280.138L5.01079 281.513ZM2.237 263.196C-1.05811 268.903 0.166844 276.245 5.00098 281.502L6.47321 280.148C2.12962 275.424 1.1814 269.024 3.96905 264.196L2.237 263.196ZM246.801 541.893L395.215 284.832L393.483 283.832L245.069 540.893L246.801 541.893ZM224.673 543.508C231.418 549.869 242.511 549.324 246.801 541.893L245.069 540.893C241.587 546.924 232.103 547.766 226.045 542.053L224.673 543.508ZM191.923 507.6C202.492 519.361 213.23 531.221 224.628 543.462L226.091 542.099C214.705 529.87 203.977 518.021 193.411 506.263L191.923 507.6ZM167.699 471.824C174.067 484.528 182.111 496.632 191.922 507.598L193.412 506.265C183.727 495.439 175.781 483.484 169.487 470.928L167.699 471.824ZM165.103 464.483C164.211 464.936 164.211 464.936 164.211 464.936C164.211 464.936 164.211 464.936 164.211 464.936C164.211 464.937 164.212 464.937 164.212 464.937C164.212 464.938 164.213 464.939 164.213 464.94C164.215 464.943 164.217 464.948 164.22 464.954C164.226 464.965 164.235 464.982 164.246 465.004C164.269 465.049 164.302 465.115 164.344 465.199C164.43 465.366 164.552 465.607 164.699 465.898C164.995 466.48 165.393 467.264 165.804 468.075C166.628 469.699 167.497 471.416 167.697 471.82L169.49 470.933C169.284 470.517 168.408 468.788 167.588 467.17C167.177 466.36 166.778 465.575 166.483 464.992C166.335 464.701 166.213 464.461 166.128 464.293C166.085 464.209 166.052 464.144 166.029 464.099C166.018 464.076 166.009 464.059 166.003 464.048C166 464.042 165.998 464.038 165.997 464.035C165.996 464.033 165.995 464.032 165.995 464.031C165.995 464.031 165.995 464.031 165.994 464.031C165.994 464.031 165.994 464.03 165.994 464.03C165.994 464.03 165.994 464.03 165.103 464.483ZM162.975 370.654C148.329 400.252 149.734 434.733 164.201 464.915L166.005 464.051C151.769 434.349 150.428 400.519 164.767 371.541L162.975 370.654ZM166.05 364.943C164.957 366.836 163.834 368.78 162.962 370.681L164.78 371.515C165.606 369.714 166.679 367.854 167.782 365.943L166.05 364.943ZM166.062 364.923L166.061 364.924L167.771 365.962L167.772 365.961L166.062 364.923ZM281.01 165.827L166.051 364.942L167.783 365.942L282.742 166.827L281.01 165.827ZM296.37 165.004C291.928 160.325 284.128 160.427 281.01 165.827L282.742 166.827C285.031 162.863 291.164 162.425 294.92 166.381L296.37 165.004ZM392.441 266.516L296.371 165.005L294.919 166.38L390.989 267.89L392.441 266.516ZM395.215 284.832C398.51 279.125 397.285 271.783 392.451 266.526L390.979 267.88C395.322 272.604 396.271 279.004 393.483 283.832L395.215 284.832Z" fill="url(#paint0_linear_1294_154)" mask="url(#path-1-outside-1_1294_154)"/>
</g>
<defs>
<linearGradient id="paint0_linear_1294_154" x1="1.38975" y1="1.12146" x2="416.197" y2="16.879" gradientUnits="userSpaceOnUse">
<stop stop-color="#4895FF"/>
<stop offset="0.317708" stop-color="#00FFCE"/>
<stop offset="0.671875" stop-color="#847BE7"/>
<stop offset="0.890625" stop-color="#D629F7"/>
<stop offset="1" stop-color="#FF00FF"/>
</linearGradient>
</defs>
</svg>
