<svg viewBox="0 0 398 546" fill="none" xmlns="http://www.w3.org/2000/svg">
<path opacity="0.7" d="M163.083 4.98699L163.071 4.97549L163.059 4.96477C156.273 -1.00125 145.611 -0.00870649 141.773 7.21069L2.42039 269.294C-0.554405 274.889 0.848654 281.951 5.73607 286.907L5.7412 286.912L105.295 385.008L105.296 385.009C109.721 389.355 117.093 388.912 119.826 383.772L227.766 180.766L227.773 180.753C228.798 178.825 229.837 176.871 230.63 174.972C244.159 145.04 241.572 110.795 226.124 81.2554L226.124 81.2554L226.119 81.2453L225.681 81.4871L226.119 81.2452L226.119 81.245L226.118 81.2442L226.116 81.2409L226.109 81.2282L226.082 81.1781L225.976 80.9876L225.597 80.3012C225.282 79.7298 224.856 78.9594 224.417 78.1639C223.538 76.5712 222.608 74.8826 222.392 74.4829L222.391 74.4807C215.604 62.0434 207.168 50.2635 197.013 39.6804L197.012 39.6796C186.04 28.2954 174.897 16.8202 163.083 4.98699ZM234.369 541.041L234.38 541.052L234.392 541.063C241.178 547.029 251.84 546.036 255.679 538.817L395.031 276.733C398.006 271.138 396.603 264.077 391.715 259.121L391.71 259.115L292.156 161.019L292.155 161.019C287.731 156.672 280.358 157.116 277.625 162.256L169.685 365.262L169.678 365.274C168.653 367.203 167.614 369.157 166.822 371.056C153.292 400.987 155.879 435.233 171.327 464.772L171.333 464.782L171.77 464.54L171.333 464.782L171.333 464.783L171.333 464.783L171.335 464.787L171.342 464.799L171.37 464.849L171.475 465.04L171.854 465.726C172.17 466.298 172.595 467.068 173.034 467.864C173.913 469.456 174.844 471.145 175.059 471.545L175.06 471.547C181.847 483.984 190.283 495.764 200.438 506.347L200.439 506.348C211.412 517.732 222.554 529.207 234.369 541.041Z" stroke="url(#paint0_linear_1294_158)"/>
<defs>
<linearGradient id="paint0_linear_1294_158" x1="-8.01408" y1="7.17432" x2="407.09" y2="8.44571" gradientUnits="userSpaceOnUse">
<stop stop-color="#4895FF"/>
<stop offset="0.317708" stop-color="#00FFCE"/>
<stop offset="0.671875" stop-color="#847BE7"/>
<stop offset="0.890625" stop-color="#D629F7"/>
<stop offset="1" stop-color="#FF00FF"/>
</linearGradient>
</defs>
</svg>
