<svg viewBox="0 0 395 534" fill="none" xmlns="http://www.w3.org/2000/svg">
<path opacity="0.7" d="M134.261 4.18116L134.249 4.17093L134.236 4.16153C126.863 -1.06251 116.364 1.03905 113.301 8.62015L2.10707 283.834C-0.266617 289.709 1.86687 296.586 7.24561 301.004L7.25123 301.008L116.514 388.161L116.514 388.161C121.369 392.021 128.655 390.81 130.836 385.412L216.965 172.236L216.97 172.223C217.788 170.198 218.617 168.146 219.207 166.174C229.533 134.992 223.381 101.205 204.93 73.4421L204.93 73.4421L204.923 73.4326L204.514 73.7189L204.923 73.4325L204.923 73.4324L204.923 73.4316L204.921 73.4286L204.912 73.4166L204.88 73.3697L204.755 73.1912L204.306 72.5483C203.932 72.0129 203.429 71.2913 202.909 70.546C201.869 69.0539 200.767 67.4718 200.511 67.0968L200.509 67.0948C192.459 55.435 182.838 44.6014 171.633 35.1378L171.632 35.1371C159.529 24.9622 147.249 14.7145 134.261 4.18116ZM261.19 529.847L261.203 529.857L261.216 529.866C268.588 535.09 279.088 532.989 282.151 525.408L393.344 250.193C395.718 244.318 393.585 237.442 388.206 233.024L388.2 233.019L278.938 145.867L278.937 145.866C274.082 142.006 266.796 143.218 264.616 148.616L178.486 361.793L178.481 361.805C177.663 363.83 176.834 365.882 176.245 367.853C165.918 399.036 172.07 432.823 190.521 460.586L190.528 460.595L190.938 460.309L190.528 460.595L190.528 460.596L190.529 460.596L190.531 460.599L190.539 460.611L190.572 460.658L190.697 460.837L191.145 461.48C191.519 462.015 192.023 462.737 192.542 463.482C193.583 464.974 194.685 466.556 194.941 466.931L194.942 466.933C202.992 478.593 212.613 489.427 223.819 498.89L223.82 498.891C235.922 509.066 248.203 519.313 261.19 529.847Z" stroke="url(#paint0_linear_1294_164)"/>
<defs>
<linearGradient id="paint0_linear_1294_164" x1="-35.6693" y1="24.241" x2="377.294" y2="-17.8848" gradientUnits="userSpaceOnUse">
<stop stop-color="#4895FF"/>
<stop offset="0.317708" stop-color="#00FFCE"/>
<stop offset="0.671875" stop-color="#847BE7"/>
<stop offset="0.890625" stop-color="#D629F7"/>
<stop offset="1" stop-color="#FF00FF"/>
</linearGradient>
</defs>
</svg>
