<svg viewBox="0 0 398 548" fill="none" xmlns="http://www.w3.org/2000/svg">
<path opacity="0.7" d="M167.765 5.40574L167.754 5.39405L167.742 5.38311C161.062 -0.700421 150.384 0.105896 146.42 7.2572L2.51497 266.869C-0.557017 272.411 0.72259 279.496 5.52276 284.537L5.5278 284.542L103.355 384.36L103.355 384.361C107.703 388.784 115.083 388.469 117.905 383.378L229.372 182.287L229.378 182.274C230.437 180.364 231.51 178.429 232.336 176.544C246.385 146.853 244.397 112.567 229.466 82.7628L229.467 82.7627L229.461 82.7525L229.019 82.9867L229.461 82.7525L229.461 82.7523L229.461 82.7514L229.459 82.7482L229.452 82.7353L229.425 82.6848L229.323 82.4924L228.956 81.7995C228.651 81.2226 228.239 80.445 227.814 79.642C226.963 78.0342 226.062 76.3296 225.853 75.9262L225.852 75.924C219.283 63.3701 211.054 51.4447 201.085 40.6861L201.085 40.6852C190.312 29.1112 179.372 17.4433 167.765 5.40574ZM229.685 542.622L229.697 542.633L229.709 542.644C236.389 548.728 247.067 547.922 251.031 540.77L394.936 281.159C398.008 275.617 396.728 268.532 391.928 263.491L391.923 263.486L294.096 163.667L294.096 163.666C289.747 159.244 282.368 159.558 279.546 164.65L168.079 365.741L168.072 365.753C167.013 367.664 165.941 369.599 165.115 371.484C151.065 401.175 153.054 435.46 167.984 465.265L167.99 465.275L168.431 465.041L167.99 465.275L167.99 465.275L167.99 465.276L167.992 465.279L167.999 465.292L168.026 465.343L168.128 465.535L168.495 466.228C168.8 466.805 169.212 467.582 169.637 468.385C170.488 469.993 171.389 471.698 171.598 472.101L171.599 472.104C178.168 484.657 186.397 496.583 196.365 507.341L196.366 507.342C207.138 518.916 218.079 530.584 229.685 542.622Z" stroke="url(#paint0_linear_1294_157)"/>
<defs>
<linearGradient id="paint0_linear_1294_157" x1="-3.34329" y1="4.60669" x2="411.675" y2="13.1224" gradientUnits="userSpaceOnUse">
<stop stop-color="#4895FF"/>
<stop offset="0.317708" stop-color="#00FFCE"/>
<stop offset="0.671875" stop-color="#847BE7"/>
<stop offset="0.890625" stop-color="#D629F7"/>
<stop offset="1" stop-color="#FF00FF"/>
</linearGradient>
</defs>
</svg>
