<svg viewBox="0 0 397 540" fill="none" xmlns="http://www.w3.org/2000/svg">
<path opacity="0.7" d="M149.104 4.21993L149.092 4.20905L149.079 4.19898C141.99 -1.40373 131.395 0.145447 127.94 7.55585L2.49458 276.574C-0.183336 282.316 1.58736 289.295 6.72749 293.988L6.73287 293.993L111.285 386.745L111.285 386.745C115.931 390.854 123.271 390.025 125.731 384.749L222.898 176.373L222.904 176.36C223.827 174.38 224.763 172.375 225.455 170.437C237.399 139.838 233.024 105.775 216.051 77.0845L216.051 77.0844L216.045 77.0746L215.62 77.3391L216.045 77.0746L216.044 77.0744L216.044 77.0736L216.042 77.0704L216.034 77.058L216.004 77.0095L215.889 76.8247L215.474 76.1592C215.129 75.605 214.664 74.858 214.184 74.0866C213.223 72.542 212.205 70.9044 211.969 70.5166L211.968 70.5145C204.539 58.4494 195.499 47.1271 184.804 37.09L184.803 37.0893C173.249 26.2949 161.522 15.4185 149.104 4.21993ZM248.347 535.808L248.359 535.819L248.372 535.829C255.461 541.432 266.056 539.882 269.511 532.472L394.956 263.454C397.634 257.712 395.864 250.733 390.723 246.039L390.718 246.035L286.166 153.283L286.166 153.283C281.52 149.174 274.18 150.003 271.72 155.279L174.552 363.656L174.546 363.668C173.623 365.648 172.688 367.653 171.996 369.591C160.052 400.19 164.427 434.253 181.4 462.943L181.406 462.953L181.831 462.689L181.406 462.953L181.406 462.954L181.407 462.954L181.409 462.957L181.417 462.97L181.447 463.018L181.562 463.203L181.977 463.869C182.322 464.423 182.787 465.17 183.267 465.941C184.228 467.486 185.245 469.123 185.482 469.511L185.483 469.513C192.912 481.579 201.952 492.901 212.647 502.938L212.648 502.939C224.202 513.733 235.929 524.609 248.347 535.808Z" stroke="url(#paint0_linear_1294_161)"/>
<defs>
<linearGradient id="paint0_linear_1294_161" x1="-21.6439" y1="15.3588" x2="392.958" y2="-5.09646" gradientUnits="userSpaceOnUse">
<stop stop-color="#4895FF"/>
<stop offset="0.317708" stop-color="#00FFCE"/>
<stop offset="0.671875" stop-color="#847BE7"/>
<stop offset="0.890625" stop-color="#D629F7"/>
<stop offset="1" stop-color="#FF00FF"/>
</linearGradient>
</defs>
</svg>
