<svg viewBox="0 0 627 624" fill="none" xmlns="http://www.w3.org/2000/svg">
<path fill-rule="evenodd" clip-rule="evenodd" d="M82.3156 479.027C113.096 498.983 148.687 506.196 178.025 506.196C190.818 506.196 202.43 504.884 211.89 502.646C212.227 502.631 212.565 502.616 212.901 502.6L213.134 502.59L213.126 502.345C215.993 501.628 218.651 500.824 221.069 499.945C266.76 482.633 331.688 420.6 379.061 348.949C433.649 266.238 465.151 183.527 455.532 147.702C452.28 135.323 447.013 128.528 440.791 124.861C468.487 123.316 506.519 128.258 540.901 150.587C588.274 181.364 614.486 235.462 618.815 310.96C621.22 351.354 616.41 408.338 558.456 490.327C520.701 543.705 464.911 582.656 392.769 605.738C338.902 623.05 243.915 621.126 162.875 575.683C106.974 544.347 64.3443 496.251 37.327 434.801C49.4089 452.642 64.4204 467.418 82.3156 479.027ZM10.6424 374.928C5.56089 356.175 2.35082 335.557 1.03511 313.124C-1.36964 271.528 3.43985 213.101 62.5966 129.188C101.554 74.3682 158.546 34.6958 232.131 11.1328C287.441 -6.65969 384.833 -4.73618 467.797 41.6685C542.825 83.7453 594.767 155.156 617.372 248.446L616.483 248.66C621.529 267.353 624.719 287.896 626.029 310.239C628.434 351.835 623.624 410.261 564.468 494.174C525.751 548.995 468.759 588.667 395.173 612.23C374.493 619.203 348.521 623.05 319.905 623.05C270.126 623.05 211.691 611.509 159.268 581.935C84.2395 539.858 32.297 468.448 9.69238 375.157L10.6424 374.928ZM589.435 188.118C562.403 126.995 519.882 79.1397 464.189 47.9199C383.149 2.47699 288.162 0.553477 234.296 17.8651C162.153 40.9472 106.363 79.8983 68.6085 133.276C10.6541 215.265 5.8446 272.249 8.24935 312.643C12.5779 388.141 38.7896 442.24 86.1632 473.016C120.636 495.404 158.778 500.313 186.493 498.729C180.28 495.059 175.021 488.266 171.772 475.901C162.153 440.076 193.656 357.365 248.243 274.654C295.617 203.003 360.545 140.97 406.235 123.658C408.641 122.746 411.298 121.908 414.176 121.16L414.171 121.013L414.404 121.003C414.56 120.996 414.717 120.988 414.874 120.981C445.496 113.269 500.264 115.556 544.749 144.336C562.495 155.848 577.405 170.475 589.435 188.118ZM417.243 128.121C414.019 128.894 411.21 129.748 408.88 130.631C364.393 147.462 300.907 208.293 254.255 278.741C201.591 358.567 169.849 440.797 178.746 473.978C184.164 494.293 194.246 495.96 209.786 495.491C213.025 494.715 215.846 493.859 218.184 492.972C262.672 476.142 326.157 415.31 372.809 344.862C425.714 265.036 457.456 182.806 448.559 149.626C443.108 129.19 432.94 127.624 417.243 128.121Z" fill="url(#paint0_linear_1169_22649)"/>
<defs>
<linearGradient id="paint0_linear_1169_22649" x1="501.732" y1="415.618" x2="70.0704" y2="118.105" gradientUnits="userSpaceOnUse">
<stop stop-color="#4895FF"/>
<stop offset="0.000343933" stop-color="#4895FF"/>
<stop offset="0.0417415" stop-color="#32B6F0"/>
<stop offset="0.0860561" stop-color="#20D0E4"/>
<stop offset="0.1346" stop-color="#12E5DA"/>
<stop offset="0.189" stop-color="#08F4D3"/>
<stop offset="0.2539" stop-color="#02FCCF"/>
<stop offset="0.3566" stop-color="#00FFCE"/>
<stop offset="0.494" stop-color="#02FDCE"/>
<stop offset="0.5534" stop-color="#09F6D0"/>
<stop offset="0.5978" stop-color="#16E9D2"/>
<stop offset="0.6348" stop-color="#28D7D6"/>
<stop offset="0.6671" stop-color="#3FC0DA"/>
<stop offset="0.6961" stop-color="#5CA3E0"/>
<stop offset="0.7227" stop-color="#7E81E6"/>
<stop offset="0.7475" stop-color="#A55AEE"/>
<stop offset="0.7698" stop-color="#D12EF6"/>
<stop offset="0.7901" stop-color="#FF00FF"/>
<stop offset="1" stop-color="#00CFFF"/>
</linearGradient>
</defs>
</svg>
