<svg width="627" height="624" viewBox="0 0 627 624" fill="none" xmlns="http://www.w3.org/2000/svg">
<path d="M312.69 622.328C250.167 622.328 189.327 603.334 137.144 567.027C-3.05292 469.89 -37.6813 277.058 59.4705 137.123C156.622 -2.81271 349.723 -37.6763 489.68 59.7014C629.395 156.839 664.264 349.671 567.112 489.606C519.979 557.41 449.28 602.853 367.999 617.52C349.483 620.886 330.966 622.328 312.69 622.328ZM313.652 6.80484C216.5 6.80484 120.792 52.7287 61.3943 138.325C-35.0361 277.058 -0.648171 468.688 138.346 565.104C205.679 611.749 286.96 629.541 367.759 615.115C448.318 600.689 518.537 555.486 565.189 488.404C661.619 349.671 627.231 158.041 488.237 61.6249C435.092 24.5973 374.011 6.80484 313.652 6.80484Z" fill="url(#paint0_linear_1739_8)"/>
<path d="M320.145 590.35C310.526 590.35 300.667 589.869 291.048 589.148C121.272 574.962 -6.41964 439.114 6.32552 286.435C12.5779 212.38 50.3324 145.538 112.856 97.9312C175.379 50.5647 255.217 28.2039 337.459 34.9362C419.702 41.9089 494.489 77.013 548.356 134.237C602.222 191.462 628.434 263.594 622.181 337.649C615.929 411.704 578.174 478.546 515.651 526.153C460.342 567.989 392.047 590.35 320.145 590.35ZM308.121 36.1384C236.941 36.1384 168.886 58.2588 114.299 99.8547C52.2562 146.981 14.7421 213.101 8.48979 286.435C-4.25537 437.912 122.475 572.558 291.048 586.743C372.809 593.476 451.925 571.355 513.968 524.229C576.01 477.103 613.524 410.983 619.777 337.649C626.029 264.315 599.817 192.664 546.672 135.921C493.287 79.177 418.98 44.0729 337.219 37.3406C327.6 36.6193 317.74 36.1384 308.121 36.1384Z" fill="url(#paint1_linear_1739_8)"/>
<path d="M313.652 565.825C143.877 565.825 5.60415 452.579 5.1232 313.124C4.64225 173.189 142.915 58.7397 313.171 58.0183C313.652 58.0183 314.133 58.0183 314.614 58.0183C484.389 58.0183 622.662 171.265 623.143 310.72C623.624 450.655 485.592 565.104 315.095 565.825C314.614 565.825 314.133 565.825 313.652 565.825ZM314.614 60.4227C314.133 60.4227 313.652 60.4227 313.171 60.4227C144.118 61.144 7.047 174.391 7.52795 313.124C8.0089 451.376 145.32 563.421 313.652 563.421C314.133 563.421 314.614 563.421 315.095 563.421C484.149 562.7 621.219 449.453 620.738 310.72C620.258 172.467 483.187 60.4227 314.614 60.4227Z" fill="url(#paint2_linear_1739_8)"/>
<path d="M297.3 544.667C229.005 544.667 164.077 527.595 111.653 495.136C49.3705 456.906 12.0969 401.605 6.56602 340.053C1.03511 278.26 27.7278 217.429 81.8346 168.38C135.941 119.571 210.969 88.5541 293.212 81.1005C462.987 65.7124 610.398 156.598 621.941 284.031C627.472 345.824 600.779 406.655 546.672 455.704C492.565 504.513 417.537 535.53 335.295 542.984C322.55 544.186 309.805 544.667 297.3 544.667ZM330.726 81.8218C318.462 81.8218 305.957 82.3027 293.452 83.5049C211.931 90.9585 137.384 121.735 83.5179 170.303C29.8921 218.632 3.43985 278.982 8.97077 340.053C14.5017 401.125 51.5348 455.464 113.096 493.453C174.658 531.443 253.533 548.273 335.295 540.82C416.816 533.366 491.363 502.59 545.229 454.021C598.855 405.693 625.307 345.343 619.776 284.271C608.955 167.418 482.706 81.8218 330.726 81.8218Z" fill="url(#paint3_linear_1739_8)"/>
<path d="M273.252 527.595C138.587 527.595 27.4874 463.398 9.93271 366.742C-10.7481 251.812 108.768 133.757 276.379 103.461C357.419 88.7945 437.737 96.729 502.184 125.582C566.872 154.675 607.993 201.32 618.093 257.102C628.193 312.884 605.829 371.07 555.329 420.841C505.07 470.371 432.687 505.956 351.407 520.382C325.195 525.191 298.743 527.595 273.252 527.595ZM355.735 98.6525C330.004 98.6525 303.552 101.057 277.1 105.866C110.692 135.921 -8.1029 252.774 12.5779 366.261C29.8921 461.715 139.789 525.191 273.252 525.191C298.502 525.191 324.714 522.787 351.407 518.218C432.206 503.792 504.108 468.447 554.127 419.158C603.905 369.868 626.029 312.643 616.169 257.583C606.31 202.522 565.67 156.598 501.703 127.986C458.418 108.51 408.399 98.6525 355.735 98.6525Z" fill="url(#paint4_linear_1739_8)"/>
<path d="M246.56 515.093C134.018 515.093 42.3967 468.688 21.4754 391.747C7.76837 341.736 25.5635 286.435 71.4942 236.184C117.184 185.932 185.239 146.74 263.393 125.341C424.752 81.3409 578.896 129.429 606.791 232.577C634.686 335.725 526.232 454.983 364.873 498.983C324.474 509.803 284.314 515.093 246.56 515.093ZM381.947 111.396C344.433 111.396 304.514 116.685 263.874 127.505C186.201 148.664 118.387 187.615 73.1775 237.626C27.9683 287.397 10.4136 341.736 23.6397 391.026C51.2943 492.732 203.996 540.098 364.152 496.579C524.308 453.059 632.041 334.763 604.386 233.298C583.946 157.079 493.287 111.396 381.947 111.396Z" fill="url(#paint5_linear_1739_8)"/>
<path d="M219.146 507.399C198.705 507.399 178.746 505.716 159.989 502.349C95.5416 490.568 51.0538 459.551 34.7015 415.07C18.3492 370.589 32.0563 318.173 73.4179 267.441C114.539 216.708 178.505 173.91 253.053 146.259C327.6 118.849 404.071 110.194 468.277 121.975C532.725 133.757 577.212 164.773 593.565 209.254C627.231 300.621 529.358 421.322 375.214 478.065C322.55 497.3 268.924 507.399 219.146 507.399ZM409.121 119.09C359.823 119.09 306.438 128.948 253.774 148.423C179.708 175.833 116.222 218.391 75.3417 268.883C34.461 318.895 20.9945 370.589 36.8658 414.108C52.9776 457.628 96.744 488.163 160.47 499.945C224.196 511.727 300.186 503.071 374.492 475.901C527.434 419.638 624.586 300.381 591.401 210.216C575.289 166.456 531.522 135.921 467.796 124.139C449.28 120.773 429.561 119.09 409.121 119.09Z" fill="url(#paint6_linear_1739_8)"/>
<path d="M195.579 503.792C126.082 503.792 71.0133 480.95 50.092 436.469C12.097 355.922 99.8702 234.5 245.598 165.975C391.326 97.4503 540.66 107.068 578.655 187.615C616.65 268.162 528.877 389.584 383.149 458.109C317.74 488.885 251.85 503.792 195.579 503.792ZM433.168 122.456C377.137 122.456 311.488 137.363 246.56 168.139C101.794 236.184 14.7422 355.922 52.0158 435.267C89.2894 514.612 237.422 523.748 381.947 455.704C526.472 387.66 613.524 267.681 576.25 188.336C555.81 144.817 501.703 122.456 433.168 122.456Z" fill="url(#paint7_linear_1739_8)"/>
<path d="M179.227 503.792C127.525 503.792 86.6441 487.923 67.6466 455.464C26.7659 385.256 103.958 263.594 239.826 184.489C305.476 146.259 374.973 123.418 435.573 120.292C496.413 117.166 540.66 134.237 560.62 168.38C580.579 202.522 573.605 249.648 540.901 300.862C508.437 351.835 454.33 401.125 388.44 439.354C315.336 482.152 239.826 503.792 179.227 503.792ZM449.52 122.456C444.951 122.456 440.382 122.456 435.813 122.937C375.695 126.063 306.678 148.664 241.269 186.894C106.603 265.277 29.6516 385.496 70.0513 454.502C88.5679 486.24 128.487 501.868 179.227 501.868C239.346 501.868 314.374 480.229 387.478 437.671C452.887 399.682 506.753 350.632 538.977 299.9C571.201 249.408 578.174 203.243 558.696 169.822C540.66 139.046 502.184 122.456 449.52 122.456Z" fill="url(#paint8_linear_1739_8)"/>
<path d="M178.024 503.071C139.068 503.071 109.489 491.049 93.1369 467.967C50.3324 407.136 114.539 287.878 236.46 201.801C295.376 160.205 358.861 132.554 415.133 123.658C471.644 114.762 514.449 126.303 535.37 155.877C556.291 185.451 552.684 229.451 525.51 279.943C498.337 329.955 450.963 380.687 392.047 422.283C333.131 463.879 269.645 491.53 213.374 500.426C200.629 502.109 188.846 503.071 178.024 503.071ZM450.482 123.177C439.661 123.177 427.878 124.139 415.613 126.063C359.583 134.718 296.578 162.369 237.903 203.724C116.944 289.08 52.9776 407.136 95.0607 466.764C115.261 495.617 157.103 506.677 212.893 498.021C268.924 489.366 331.928 461.715 390.604 420.36C449.28 379.004 496.413 328.752 523.346 278.982C550.039 229.451 553.646 186.413 533.446 157.56C517.575 134.959 488.718 123.177 450.482 123.177Z" fill="url(#paint9_linear_1739_8)"/>
<path d="M181.872 503.792C153.256 503.792 131.132 495.377 116.944 478.786C72.937 426.611 125.36 309.517 234.055 217.429C286.719 172.948 344.192 140.97 396.616 127.265C449.039 113.56 489.92 119.811 511.322 145.298C532.725 170.784 532.244 211.899 510.12 261.43C487.996 310.72 446.875 362.173 394.211 406.655C341.547 451.136 284.074 483.114 231.65 496.819C213.615 501.388 197.022 503.792 181.872 503.792ZM446.394 122.456C431.725 122.456 415.132 124.86 397.097 129.429C345.154 143.134 287.921 174.872 235.498 219.112C127.765 310.239 75.3418 425.89 118.627 477.103C139.549 501.868 179.467 507.879 230.929 494.415C282.871 480.71 340.104 448.972 392.528 404.731C444.711 360.49 485.832 309.277 507.715 260.468C529.598 211.899 530.32 171.505 509.399 146.981C495.932 130.871 474.289 122.456 446.394 122.456Z" fill="url(#paint10_linear_1739_8)"/>
<path d="M187.163 502.109C168.165 502.109 152.534 496.819 141.713 486C99.3893 443.923 142.194 331.638 237.422 235.943C332.65 140.008 444.47 96.2481 486.794 138.325C507.475 158.762 508.677 196.271 490.401 243.637C472.366 290.763 437.016 342.217 391.085 388.381C345.154 434.786 293.933 470.371 247.041 488.885C224.436 497.541 204.236 502.109 187.163 502.109ZM441.344 124.379C388.44 124.379 309.324 166.697 239.105 237.386C144.839 332.359 101.794 442.961 143.396 484.076C163.356 503.792 199.908 504.754 246.079 486.48C292.731 468.207 343.712 432.622 389.402 386.458C435.092 340.294 470.201 289.321 488.237 242.435C506.032 196.03 505.07 159.484 485.111 139.768C474.53 129.429 459.38 124.379 441.344 124.379Z" fill="url(#paint11_linear_1739_8)"/>
<path d="M188.365 504.754C177.544 504.754 168.165 501.868 161.191 496.098C142.675 480.71 141.472 447.048 157.584 401.365C173.696 355.922 204.958 303.987 245.598 254.938C286.479 205.888 331.928 165.735 373.53 141.691C415.614 117.407 449.039 112.598 467.556 128.226C486.073 143.615 487.275 177.276 471.163 222.959C455.051 268.402 423.79 320.337 383.149 369.387C314.374 451.617 235.738 504.754 188.365 504.754ZM439.661 121.494C422.347 121.494 399.983 128.948 374.492 143.615C333.131 167.418 287.921 207.331 247.281 256.14C206.641 304.949 175.62 356.643 159.508 401.605C143.637 446.327 144.839 479.027 162.394 493.694C199.186 524.47 297.3 467.726 380.985 367.223C421.625 318.414 452.647 266.719 468.758 221.757C484.63 177.036 483.427 144.336 465.873 129.669C459.139 124.379 450.242 121.494 439.661 121.494Z" fill="url(#paint12_linear_1739_8)"/>
<path fill-rule="evenodd" clip-rule="evenodd" d="M82.3156 479.027C113.096 498.983 148.687 506.196 178.025 506.196C190.818 506.196 202.43 504.884 211.89 502.646C212.227 502.631 212.565 502.616 212.901 502.6L213.134 502.59L213.126 502.345C215.993 501.628 218.651 500.824 221.069 499.945C266.76 482.633 331.688 420.6 379.061 348.949C433.649 266.238 465.151 183.527 455.532 147.702C452.28 135.323 447.013 128.528 440.791 124.861C468.487 123.316 506.519 128.258 540.901 150.587C588.274 181.363 614.486 235.462 618.815 310.96C621.22 351.354 616.41 408.338 558.456 490.327C520.701 543.705 464.911 582.656 392.769 605.738C338.902 623.05 243.915 621.126 162.875 575.683C106.974 544.347 64.3443 496.251 37.327 434.801C49.4089 452.642 64.4204 467.418 82.3156 479.027ZM10.6424 374.928C5.56089 356.175 2.35082 335.557 1.03511 313.124C-1.36964 271.528 3.43985 213.101 62.5966 129.188C101.554 74.3682 158.546 34.6958 232.131 11.1328C287.441 -6.65972 384.833 -4.73622 467.797 41.6685C542.825 83.7453 594.767 155.156 617.372 248.446L616.483 248.66C621.529 267.353 624.719 287.896 626.029 310.239C628.434 351.835 623.624 410.261 564.468 494.174C525.751 548.995 468.759 588.667 395.173 612.23C374.493 619.203 348.521 623.05 319.905 623.05C270.126 623.05 211.691 611.509 159.268 581.935C84.2395 539.858 32.297 468.447 9.69238 375.157L10.6424 374.928ZM589.435 188.118C562.403 126.995 519.882 79.1396 464.189 47.9199C383.149 2.47695 288.162 0.553446 234.296 17.865C162.153 40.9472 106.363 79.8983 68.6085 133.276C10.6541 215.265 5.8446 272.249 8.24935 312.643C12.5779 388.141 38.7896 442.24 86.1632 473.016C120.636 495.404 158.778 500.313 186.493 498.729C180.28 495.059 175.021 488.266 171.772 475.901C162.153 440.076 193.656 357.365 248.243 274.654C295.617 203.003 360.545 140.97 406.235 123.658C408.641 122.746 411.298 121.908 414.176 121.16L414.171 121.013L414.404 121.003C414.56 120.996 414.717 120.988 414.874 120.981C445.496 113.269 500.264 115.556 544.749 144.336C562.495 155.848 577.405 170.475 589.435 188.118ZM417.243 128.121C414.019 128.894 411.21 129.748 408.88 130.631C364.393 147.462 300.907 208.293 254.255 278.741C201.591 358.567 169.849 440.797 178.746 473.978C184.164 494.293 194.246 495.96 209.786 495.491C213.025 494.715 215.846 493.859 218.184 492.972C262.672 476.141 326.157 415.31 372.809 344.862C425.714 265.036 457.456 182.806 448.559 149.626C443.108 129.19 432.94 127.624 417.243 128.121Z" fill="url(#paint13_linear_1739_8)"/>
<defs>
<linearGradient id="paint0_linear_1739_8" x1="58.4705" y1="138.352" x2="567.627" y2="488.677" gradientUnits="userSpaceOnUse">
<stop stop-color="#4895FF"/>
<stop offset="0.000343933" stop-color="#4895FF"/>
<stop offset="0.0417415" stop-color="#32B6F0"/>
<stop offset="0.0860561" stop-color="#20D0E4"/>
<stop offset="0.1346" stop-color="#12E5DA"/>
<stop offset="0.189" stop-color="#08F4D3"/>
<stop offset="0.2539" stop-color="#02FCCF"/>
<stop offset="0.3566" stop-color="#00FFCE"/>
<stop offset="0.494" stop-color="#02FDCE"/>
<stop offset="0.5534" stop-color="#09F6D0"/>
<stop offset="0.5978" stop-color="#16E9D2"/>
<stop offset="0.6348" stop-color="#28D7D6"/>
<stop offset="0.6671" stop-color="#3FC0DA"/>
<stop offset="0.6961" stop-color="#5CA3E0"/>
<stop offset="0.7227" stop-color="#7E81E6"/>
<stop offset="0.7475" stop-color="#A55AEE"/>
<stop offset="0.7698" stop-color="#D12EF6"/>
<stop offset="0.7901" stop-color="#FF00FF"/>
<stop offset="1" stop-color="#00CFFF"/>
</linearGradient>
<linearGradient id="paint1_linear_1739_8" x1="65.3742" y1="140.976" x2="562.71" y2="483.168" gradientUnits="userSpaceOnUse">
<stop stop-color="#4895FF"/>
<stop offset="0.000343933" stop-color="#4895FF"/>
<stop offset="0.0417415" stop-color="#32B6F0"/>
<stop offset="0.0860561" stop-color="#20D0E4"/>
<stop offset="0.1346" stop-color="#12E5DA"/>
<stop offset="0.189" stop-color="#08F4D3"/>
<stop offset="0.2539" stop-color="#02FCCF"/>
<stop offset="0.3566" stop-color="#00FFCE"/>
<stop offset="0.494" stop-color="#02FDCE"/>
<stop offset="0.5534" stop-color="#09F6D0"/>
<stop offset="0.5978" stop-color="#16E9D2"/>
<stop offset="0.6348" stop-color="#28D7D6"/>
<stop offset="0.6671" stop-color="#3FC0DA"/>
<stop offset="0.6961" stop-color="#5CA3E0"/>
<stop offset="0.7227" stop-color="#7E81E6"/>
<stop offset="0.7475" stop-color="#A55AEE"/>
<stop offset="0.7698" stop-color="#D12EF6"/>
<stop offset="0.7901" stop-color="#FF00FF"/>
<stop offset="1" stop-color="#00CFFF"/>
</linearGradient>
<linearGradient id="paint2_linear_1739_8" x1="73.2527" y1="146.503" x2="554.732" y2="477.785" gradientUnits="userSpaceOnUse">
<stop stop-color="#4895FF"/>
<stop offset="0.000343933" stop-color="#4895FF"/>
<stop offset="0.0417415" stop-color="#32B6F0"/>
<stop offset="0.0860561" stop-color="#20D0E4"/>
<stop offset="0.1346" stop-color="#12E5DA"/>
<stop offset="0.189" stop-color="#08F4D3"/>
<stop offset="0.2539" stop-color="#02FCCF"/>
<stop offset="0.3566" stop-color="#00FFCE"/>
<stop offset="0.494" stop-color="#02FDCE"/>
<stop offset="0.5534" stop-color="#09F6D0"/>
<stop offset="0.5978" stop-color="#16E9D2"/>
<stop offset="0.6348" stop-color="#28D7D6"/>
<stop offset="0.6671" stop-color="#3FC0DA"/>
<stop offset="0.6961" stop-color="#5CA3E0"/>
<stop offset="0.7227" stop-color="#7E81E6"/>
<stop offset="0.7475" stop-color="#A55AEE"/>
<stop offset="0.7698" stop-color="#D12EF6"/>
<stop offset="0.7901" stop-color="#FF00FF"/>
<stop offset="1" stop-color="#00CFFF"/>
</linearGradient>
<linearGradient id="paint3_linear_1739_8" x1="83.1076" y1="153.371" x2="544.796" y2="471.036" gradientUnits="userSpaceOnUse">
<stop stop-color="#4895FF"/>
<stop offset="0.000343933" stop-color="#4895FF"/>
<stop offset="0.0417415" stop-color="#32B6F0"/>
<stop offset="0.0860561" stop-color="#20D0E4"/>
<stop offset="0.1346" stop-color="#12E5DA"/>
<stop offset="0.189" stop-color="#08F4D3"/>
<stop offset="0.2539" stop-color="#02FCCF"/>
<stop offset="0.3566" stop-color="#00FFCE"/>
<stop offset="0.494" stop-color="#02FDCE"/>
<stop offset="0.5534" stop-color="#09F6D0"/>
<stop offset="0.5978" stop-color="#16E9D2"/>
<stop offset="0.6348" stop-color="#28D7D6"/>
<stop offset="0.6671" stop-color="#3FC0DA"/>
<stop offset="0.6961" stop-color="#5CA3E0"/>
<stop offset="0.7227" stop-color="#7E81E6"/>
<stop offset="0.7475" stop-color="#A55AEE"/>
<stop offset="0.7698" stop-color="#D12EF6"/>
<stop offset="0.7901" stop-color="#FF00FF"/>
<stop offset="1" stop-color="#00CFFF"/>
</linearGradient>
<linearGradient id="paint4_linear_1739_8" x1="95.4966" y1="161.696" x2="532.742" y2="462.543" gradientUnits="userSpaceOnUse">
<stop stop-color="#4895FF"/>
<stop offset="0.000343933" stop-color="#4895FF"/>
<stop offset="0.0417415" stop-color="#32B6F0"/>
<stop offset="0.0860561" stop-color="#20D0E4"/>
<stop offset="0.1346" stop-color="#12E5DA"/>
<stop offset="0.189" stop-color="#08F4D3"/>
<stop offset="0.2539" stop-color="#02FCCF"/>
<stop offset="0.3566" stop-color="#00FFCE"/>
<stop offset="0.494" stop-color="#02FDCE"/>
<stop offset="0.5534" stop-color="#09F6D0"/>
<stop offset="0.5978" stop-color="#16E9D2"/>
<stop offset="0.6348" stop-color="#28D7D6"/>
<stop offset="0.6671" stop-color="#3FC0DA"/>
<stop offset="0.6961" stop-color="#5CA3E0"/>
<stop offset="0.7227" stop-color="#7E81E6"/>
<stop offset="0.7475" stop-color="#A55AEE"/>
<stop offset="0.7698" stop-color="#D12EF6"/>
<stop offset="0.7901" stop-color="#FF00FF"/>
<stop offset="1" stop-color="#00CFFF"/>
</linearGradient>
<linearGradient id="paint5_linear_1739_8" x1="111.731" y1="172.971" x2="516.12" y2="451.211" gradientUnits="userSpaceOnUse">
<stop stop-color="#4895FF"/>
<stop offset="0.000343933" stop-color="#4895FF"/>
<stop offset="0.0417415" stop-color="#32B6F0"/>
<stop offset="0.0860561" stop-color="#20D0E4"/>
<stop offset="0.1346" stop-color="#12E5DA"/>
<stop offset="0.189" stop-color="#08F4D3"/>
<stop offset="0.2539" stop-color="#02FCCF"/>
<stop offset="0.3566" stop-color="#00FFCE"/>
<stop offset="0.494" stop-color="#02FDCE"/>
<stop offset="0.5534" stop-color="#09F6D0"/>
<stop offset="0.5978" stop-color="#16E9D2"/>
<stop offset="0.6348" stop-color="#28D7D6"/>
<stop offset="0.6671" stop-color="#3FC0DA"/>
<stop offset="0.6961" stop-color="#5CA3E0"/>
<stop offset="0.7227" stop-color="#7E81E6"/>
<stop offset="0.7475" stop-color="#A55AEE"/>
<stop offset="0.7698" stop-color="#D12EF6"/>
<stop offset="0.7901" stop-color="#FF00FF"/>
<stop offset="1" stop-color="#00CFFF"/>
</linearGradient>
<linearGradient id="paint6_linear_1739_8" x1="129.019" y1="184.861" x2="498.847" y2="439.322" gradientUnits="userSpaceOnUse">
<stop stop-color="#4895FF"/>
<stop offset="0.000343933" stop-color="#4895FF"/>
<stop offset="0.0417415" stop-color="#32B6F0"/>
<stop offset="0.0860561" stop-color="#20D0E4"/>
<stop offset="0.1346" stop-color="#12E5DA"/>
<stop offset="0.189" stop-color="#08F4D3"/>
<stop offset="0.2539" stop-color="#02FCCF"/>
<stop offset="0.3566" stop-color="#00FFCE"/>
<stop offset="0.494" stop-color="#02FDCE"/>
<stop offset="0.5534" stop-color="#09F6D0"/>
<stop offset="0.5978" stop-color="#16E9D2"/>
<stop offset="0.6348" stop-color="#28D7D6"/>
<stop offset="0.6671" stop-color="#3FC0DA"/>
<stop offset="0.6961" stop-color="#5CA3E0"/>
<stop offset="0.7227" stop-color="#7E81E6"/>
<stop offset="0.7475" stop-color="#A55AEE"/>
<stop offset="0.7698" stop-color="#D12EF6"/>
<stop offset="0.7901" stop-color="#FF00FF"/>
<stop offset="1" stop-color="#00CFFF"/>
</linearGradient>
<linearGradient id="paint7_linear_1739_8" x1="147.011" y1="197.239" x2="480.987" y2="427.031" gradientUnits="userSpaceOnUse">
<stop stop-color="#4895FF"/>
<stop offset="0.000343933" stop-color="#4895FF"/>
<stop offset="0.0417415" stop-color="#32B6F0"/>
<stop offset="0.0860561" stop-color="#20D0E4"/>
<stop offset="0.1346" stop-color="#12E5DA"/>
<stop offset="0.189" stop-color="#08F4D3"/>
<stop offset="0.2539" stop-color="#02FCCF"/>
<stop offset="0.3566" stop-color="#00FFCE"/>
<stop offset="0.494" stop-color="#02FDCE"/>
<stop offset="0.5534" stop-color="#09F6D0"/>
<stop offset="0.5978" stop-color="#16E9D2"/>
<stop offset="0.6348" stop-color="#28D7D6"/>
<stop offset="0.6671" stop-color="#3FC0DA"/>
<stop offset="0.6961" stop-color="#5CA3E0"/>
<stop offset="0.7227" stop-color="#7E81E6"/>
<stop offset="0.7475" stop-color="#A55AEE"/>
<stop offset="0.7698" stop-color="#D12EF6"/>
<stop offset="0.7901" stop-color="#FF00FF"/>
<stop offset="1" stop-color="#00CFFF"/>
</linearGradient>
<linearGradient id="paint8_linear_1739_8" x1="165.309" y1="209.766" x2="462.863" y2="414.498" gradientUnits="userSpaceOnUse">
<stop stop-color="#4895FF"/>
<stop offset="0.000343933" stop-color="#4895FF"/>
<stop offset="0.0417415" stop-color="#32B6F0"/>
<stop offset="0.0860561" stop-color="#20D0E4"/>
<stop offset="0.1346" stop-color="#12E5DA"/>
<stop offset="0.189" stop-color="#08F4D3"/>
<stop offset="0.2539" stop-color="#02FCCF"/>
<stop offset="0.3566" stop-color="#00FFCE"/>
<stop offset="0.494" stop-color="#02FDCE"/>
<stop offset="0.5534" stop-color="#09F6D0"/>
<stop offset="0.5978" stop-color="#16E9D2"/>
<stop offset="0.6348" stop-color="#28D7D6"/>
<stop offset="0.6671" stop-color="#3FC0DA"/>
<stop offset="0.6961" stop-color="#5CA3E0"/>
<stop offset="0.7227" stop-color="#7E81E6"/>
<stop offset="0.7475" stop-color="#A55AEE"/>
<stop offset="0.7698" stop-color="#D12EF6"/>
<stop offset="0.7901" stop-color="#FF00FF"/>
<stop offset="1" stop-color="#00CFFF"/>
</linearGradient>
<linearGradient id="paint9_linear_1739_8" x1="184.364" y1="222.931" x2="443.755" y2="401.405" gradientUnits="userSpaceOnUse">
<stop stop-color="#4895FF"/>
<stop offset="0.000343933" stop-color="#4895FF"/>
<stop offset="0.0417415" stop-color="#32B6F0"/>
<stop offset="0.0860561" stop-color="#20D0E4"/>
<stop offset="0.1346" stop-color="#12E5DA"/>
<stop offset="0.189" stop-color="#08F4D3"/>
<stop offset="0.2539" stop-color="#02FCCF"/>
<stop offset="0.3566" stop-color="#00FFCE"/>
<stop offset="0.494" stop-color="#02FDCE"/>
<stop offset="0.5534" stop-color="#09F6D0"/>
<stop offset="0.5978" stop-color="#16E9D2"/>
<stop offset="0.6348" stop-color="#28D7D6"/>
<stop offset="0.6671" stop-color="#3FC0DA"/>
<stop offset="0.6961" stop-color="#5CA3E0"/>
<stop offset="0.7227" stop-color="#7E81E6"/>
<stop offset="0.7475" stop-color="#A55AEE"/>
<stop offset="0.7698" stop-color="#D12EF6"/>
<stop offset="0.7901" stop-color="#FF00FF"/>
<stop offset="1" stop-color="#00CFFF"/>
</linearGradient>
<linearGradient id="paint10_linear_1739_8" x1="200.754" y1="234.205" x2="427.355" y2="390.117" gradientUnits="userSpaceOnUse">
<stop stop-color="#4895FF"/>
<stop offset="0.000343933" stop-color="#4895FF"/>
<stop offset="0.0417415" stop-color="#32B6F0"/>
<stop offset="0.0860561" stop-color="#20D0E4"/>
<stop offset="0.1346" stop-color="#12E5DA"/>
<stop offset="0.189" stop-color="#08F4D3"/>
<stop offset="0.2539" stop-color="#02FCCF"/>
<stop offset="0.3566" stop-color="#00FFCE"/>
<stop offset="0.494" stop-color="#02FDCE"/>
<stop offset="0.5534" stop-color="#09F6D0"/>
<stop offset="0.5978" stop-color="#16E9D2"/>
<stop offset="0.6348" stop-color="#28D7D6"/>
<stop offset="0.6671" stop-color="#3FC0DA"/>
<stop offset="0.6961" stop-color="#5CA3E0"/>
<stop offset="0.7227" stop-color="#7E81E6"/>
<stop offset="0.7475" stop-color="#A55AEE"/>
<stop offset="0.7698" stop-color="#D12EF6"/>
<stop offset="0.7901" stop-color="#FF00FF"/>
<stop offset="1" stop-color="#00CFFF"/>
</linearGradient>
<linearGradient id="paint11_linear_1739_8" x1="219.161" y1="246.874" x2="408.915" y2="377.435" gradientUnits="userSpaceOnUse">
<stop stop-color="#4895FF"/>
<stop offset="0.000343933" stop-color="#4895FF"/>
<stop offset="0.0417415" stop-color="#32B6F0"/>
<stop offset="0.0860561" stop-color="#20D0E4"/>
<stop offset="0.1346" stop-color="#12E5DA"/>
<stop offset="0.189" stop-color="#08F4D3"/>
<stop offset="0.2539" stop-color="#02FCCF"/>
<stop offset="0.3566" stop-color="#00FFCE"/>
<stop offset="0.494" stop-color="#02FDCE"/>
<stop offset="0.5534" stop-color="#09F6D0"/>
<stop offset="0.5978" stop-color="#16E9D2"/>
<stop offset="0.6348" stop-color="#28D7D6"/>
<stop offset="0.6671" stop-color="#3FC0DA"/>
<stop offset="0.6961" stop-color="#5CA3E0"/>
<stop offset="0.7227" stop-color="#7E81E6"/>
<stop offset="0.7475" stop-color="#A55AEE"/>
<stop offset="0.7698" stop-color="#D12EF6"/>
<stop offset="0.7901" stop-color="#FF00FF"/>
<stop offset="1" stop-color="#00CFFF"/>
</linearGradient>
<linearGradient id="paint12_linear_1739_8" x1="238.405" y1="260.101" x2="389.612" y2="364.14" gradientUnits="userSpaceOnUse">
<stop stop-color="#4895FF"/>
<stop offset="0.000343933" stop-color="#4895FF"/>
<stop offset="0.0417415" stop-color="#32B6F0"/>
<stop offset="0.0860561" stop-color="#20D0E4"/>
<stop offset="0.1346" stop-color="#12E5DA"/>
<stop offset="0.189" stop-color="#08F4D3"/>
<stop offset="0.2539" stop-color="#02FCCF"/>
<stop offset="0.3566" stop-color="#00FFCE"/>
<stop offset="0.494" stop-color="#02FDCE"/>
<stop offset="0.5534" stop-color="#09F6D0"/>
<stop offset="0.5978" stop-color="#16E9D2"/>
<stop offset="0.6348" stop-color="#28D7D6"/>
<stop offset="0.6671" stop-color="#3FC0DA"/>
<stop offset="0.6961" stop-color="#5CA3E0"/>
<stop offset="0.7227" stop-color="#7E81E6"/>
<stop offset="0.7475" stop-color="#A55AEE"/>
<stop offset="0.7698" stop-color="#D12EF6"/>
<stop offset="0.7901" stop-color="#FF00FF"/>
<stop offset="1" stop-color="#00CFFF"/>
</linearGradient>
<linearGradient id="paint13_linear_1739_8" x1="501.732" y1="415.618" x2="70.0704" y2="118.105" gradientUnits="userSpaceOnUse">
<stop stop-color="#4895FF"/>
<stop offset="0.000343933" stop-color="#4895FF"/>
<stop offset="0.0417415" stop-color="#32B6F0"/>
<stop offset="0.0860561" stop-color="#20D0E4"/>
<stop offset="0.1346" stop-color="#12E5DA"/>
<stop offset="0.189" stop-color="#08F4D3"/>
<stop offset="0.2539" stop-color="#02FCCF"/>
<stop offset="0.3566" stop-color="#00FFCE"/>
<stop offset="0.494" stop-color="#02FDCE"/>
<stop offset="0.5534" stop-color="#09F6D0"/>
<stop offset="0.5978" stop-color="#16E9D2"/>
<stop offset="0.6348" stop-color="#28D7D6"/>
<stop offset="0.6671" stop-color="#3FC0DA"/>
<stop offset="0.6961" stop-color="#5CA3E0"/>
<stop offset="0.7227" stop-color="#7E81E6"/>
<stop offset="0.7475" stop-color="#A55AEE"/>
<stop offset="0.7698" stop-color="#D12EF6"/>
<stop offset="0.7901" stop-color="#FF00FF"/>
<stop offset="1" stop-color="#00CFFF"/>
</linearGradient>
</defs>
</svg>
