<svg viewBox="0 0 665 763" fill="none" xmlns="http://www.w3.org/2000/svg">
<g opacity="0.7">
<mask id="path-1-outside-1_1306_123" maskUnits="userSpaceOnUse" x="87.5715" y="69.7443" fill="black">
<rect fill="white" x="87.5715" y="69.7443" />
<path fill-rule="evenodd" clip-rule="evenodd" d="M91.5226 369.766L260.534 77.0235C264.96 69.3581 276.675 68.5678 283.965 75.4429C296.938 89.3763 309.161 102.876 321.195 116.268C332.296 128.676 341.401 142.376 348.61 156.759C349.072 157.692 352.585 164.609 352.585 164.609C368.928 198.707 370.491 237.603 353.987 270.957C353.02 273.065 351.77 275.231 350.519 277.397L350.519 277.397L219.605 504.15C216.527 509.483 208.593 509.79 203.925 504.874L94.5222 389.273C89.2965 383.589 88.0591 375.765 91.5226 369.766ZM537.068 393.266L368.056 686.009C363.63 693.674 351.915 694.464 344.625 687.589C331.652 673.656 319.43 660.156 307.395 646.764C296.294 634.356 287.189 620.656 279.981 606.273C279.519 605.34 276.006 598.423 276.006 598.423C259.662 564.325 258.099 525.429 274.603 492.075C275.57 489.968 276.82 487.801 278.071 485.635L278.071 485.635L408.985 258.882C412.064 253.549 419.997 253.242 424.665 258.158L534.068 373.759C539.294 379.443 540.531 387.267 537.068 393.266Z"/>
</mask>
<path d="M260.534 77.0235L261.4 77.5235L260.534 77.0235ZM91.5226 369.766L92.3886 370.266L91.5226 369.766ZM283.965 75.4429L284.697 74.7615L284.675 74.7377L284.651 74.7154L283.965 75.4429ZM321.195 116.268L321.94 115.601L321.939 115.6L321.195 116.268ZM348.61 156.759L349.506 156.315L349.504 156.311L348.61 156.759ZM352.585 164.609L353.487 164.176L353.482 164.166L353.476 164.156L352.585 164.609ZM353.987 270.957L353.091 270.513L353.084 270.526L353.078 270.54L353.987 270.957ZM350.519 277.397L349.653 276.897L349.617 276.959L349.591 277.026L350.519 277.397ZM350.519 277.397L351.385 277.897L351.421 277.835L351.447 277.769L350.519 277.397ZM219.605 504.15L220.471 504.65L219.605 504.15ZM203.925 504.874L203.199 505.561L203.2 505.562L203.925 504.874ZM94.5222 389.273L93.7861 389.949L93.791 389.955L93.7959 389.96L94.5222 389.273ZM368.056 686.009L368.922 686.509L368.056 686.009ZM537.068 393.266L537.934 393.766L537.068 393.266ZM344.625 687.589L343.893 688.271L343.915 688.294L343.939 688.317L344.625 687.589ZM307.395 646.764L306.65 647.431L306.651 647.432L307.395 646.764ZM279.981 606.273L279.084 606.717L279.087 606.721L279.981 606.273ZM276.006 598.423L275.104 598.856L275.109 598.866L275.114 598.876L276.006 598.423ZM274.603 492.075L275.499 492.519L275.506 492.506L275.512 492.492L274.603 492.075ZM278.071 485.635L277.214 485.121L277.209 485.128L277.205 485.135L278.071 485.635ZM278.071 485.635L278.929 486.149L278.933 486.142L278.937 486.135L278.071 485.635ZM408.985 258.882L409.851 259.382L408.985 258.882ZM424.665 258.158L425.391 257.471L425.39 257.47L424.665 258.158ZM534.068 373.759L534.804 373.083L534.799 373.077L534.794 373.072L534.068 373.759ZM259.668 76.5235L90.6566 369.266L92.3886 370.266L261.4 77.5235L259.668 76.5235ZM284.651 74.7154C277.018 67.5162 264.498 68.1582 259.668 76.5235L261.4 77.5235C265.422 70.5579 276.333 69.6194 283.279 76.1704L284.651 74.7154ZM321.939 115.6C309.903 102.206 297.676 88.7013 284.697 74.7615L283.233 76.1243C296.2 90.0514 308.418 103.546 320.451 116.937L321.939 115.6ZM349.504 156.311C342.258 141.854 333.104 128.08 321.94 115.601L320.45 116.935C331.488 129.273 340.544 142.898 347.716 157.207L349.504 156.311ZM352.585 164.609C353.476 164.156 353.476 164.156 353.476 164.156C353.476 164.156 353.476 164.155 353.476 164.155C353.476 164.155 353.476 164.155 353.476 164.154C353.475 164.154 353.475 164.152 353.474 164.151C353.472 164.147 353.47 164.142 353.466 164.136C353.46 164.123 353.45 164.103 353.437 164.078C353.411 164.027 353.373 163.952 353.325 163.857C353.228 163.666 353.089 163.392 352.92 163.061C352.584 162.398 352.13 161.504 351.662 160.581C350.725 158.732 349.734 156.776 349.506 156.315L347.714 157.203C347.947 157.675 348.944 159.644 349.879 161.486C350.347 162.409 350.8 163.303 351.137 163.966C351.305 164.297 351.444 164.571 351.541 164.762C351.59 164.858 351.628 164.933 351.654 164.983C351.667 165.009 351.676 165.028 351.683 165.042C351.686 165.048 351.689 165.053 351.691 165.056C351.691 165.058 351.692 165.059 351.693 165.06C351.693 165.061 351.693 165.061 351.693 165.061C351.693 165.061 351.693 165.061 351.693 165.061C351.693 165.061 351.693 165.061 352.585 164.609ZM354.883 271.4C371.541 237.737 369.945 198.515 353.487 164.176L351.683 165.041C367.911 198.899 369.441 237.47 353.091 270.513L354.883 271.4ZM351.385 277.897C352.631 275.74 353.906 273.532 354.896 271.373L353.078 270.54C352.135 272.597 350.909 274.722 349.653 276.897L351.385 277.897ZM351.447 277.769L351.448 277.768L349.591 277.026L349.591 277.026L351.447 277.769ZM220.471 504.65L351.385 277.897L349.653 276.897L218.739 503.65L220.471 504.65ZM203.2 505.562C208.211 510.84 216.978 510.701 220.471 504.65L218.739 503.65C216.075 508.265 208.975 508.74 204.651 504.185L203.2 505.562ZM93.7959 389.96L203.199 505.561L204.652 504.186L95.2485 388.585L93.7959 389.96ZM90.6566 369.266C86.9394 375.704 88.3151 383.999 93.7861 389.949L95.2584 388.596C90.2779 383.179 89.1789 375.825 92.3886 370.266L90.6566 369.266ZM368.922 686.509L537.934 393.766L536.202 392.766L367.19 685.509L368.922 686.509ZM343.939 688.317C351.572 695.516 364.092 694.874 368.922 686.509L367.19 685.509C363.168 692.474 352.257 693.413 345.311 686.862L343.939 688.317ZM306.651 647.432C318.687 660.826 330.914 674.331 343.893 688.271L345.357 686.908C332.39 672.981 320.172 659.486 308.139 646.095L306.651 647.432ZM279.087 606.721C286.333 621.178 295.486 634.952 306.65 647.431L308.14 646.097C297.102 633.759 288.046 620.134 280.875 605.825L279.087 606.721ZM276.006 598.423C275.114 598.876 275.114 598.876 275.114 598.876C275.114 598.876 275.114 598.877 275.114 598.877C275.114 598.877 275.114 598.877 275.115 598.878C275.115 598.878 275.116 598.88 275.116 598.881C275.118 598.885 275.121 598.89 275.124 598.896C275.131 598.909 275.141 598.929 275.153 598.954C275.179 599.005 275.217 599.08 275.266 599.175C275.363 599.366 275.502 599.64 275.67 599.971C276.006 600.634 276.46 601.528 276.928 602.451C277.866 604.3 278.856 606.256 279.084 606.717L280.877 605.83C280.643 605.357 279.646 603.388 278.712 601.546C278.244 600.623 277.79 599.729 277.453 599.066C277.285 598.735 277.146 598.461 277.049 598.27C277.001 598.174 276.963 598.099 276.937 598.049C276.924 598.023 276.914 598.004 276.907 597.991C276.904 597.984 276.901 597.979 276.9 597.976C276.899 597.974 276.898 597.973 276.898 597.972C276.898 597.971 276.897 597.971 276.897 597.971C276.897 597.971 276.897 597.971 276.897 597.971C276.897 597.971 276.897 597.971 276.006 598.423ZM273.707 491.632C257.049 525.295 258.645 564.517 275.104 598.856L276.907 597.991C260.68 564.133 259.149 525.562 275.499 492.519L273.707 491.632ZM277.205 485.135C275.96 487.292 274.684 489.5 273.694 491.659L275.512 492.492C276.456 490.435 277.681 488.31 278.937 486.135L277.205 485.135ZM277.214 485.12L277.214 485.121L278.929 486.15L278.929 486.149L277.214 485.12ZM408.119 258.382L277.205 485.135L278.937 486.135L409.851 259.382L408.119 258.382ZM425.39 257.47C420.38 252.192 411.612 252.331 408.119 258.382L409.851 259.382C412.515 254.767 419.615 254.292 423.94 258.847L425.39 257.47ZM534.794 373.072L425.391 257.471L423.939 258.846L533.342 374.447L534.794 373.072ZM537.934 393.766C541.651 387.328 540.275 379.033 534.804 373.083L533.332 374.436C538.312 379.853 539.411 387.207 536.202 392.766L537.934 393.766Z" fill="url(#paint0_linear_1306_123)" mask="url(#path-1-outside-1_1306_123)"/>
</g>
<path opacity="0.7" d="M278.988 75.6714L278.977 75.6597L278.964 75.6488C271.381 68.7429 259.278 69.6704 254.791 77.7653L90.9136 373.413C87.4324 379.693 88.8794 387.729 94.3284 393.451L94.3335 393.457L205.737 507.131L205.738 507.131C210.665 512.143 219.011 511.774 222.197 506.026L349.133 277.023L349.14 277.01C350.347 274.834 351.567 272.632 352.506 270.488C368.496 236.697 366.234 197.674 349.24 163.749L349.235 163.739L348.793 163.973L349.235 163.739L349.234 163.738L349.234 163.737L349.232 163.734L349.224 163.719L349.194 163.662L349.078 163.442L348.66 162.653C348.311 161.996 347.842 161.111 347.358 160.196C346.389 158.366 345.363 156.424 345.126 155.964L345.125 155.962C337.646 141.671 328.279 128.095 316.931 115.848L316.93 115.847C304.663 102.667 292.205 89.3794 278.988 75.6714ZM349.601 687.36L349.613 687.372L349.625 687.382C357.208 694.288 369.311 693.361 373.798 685.266L537.675 389.619C541.157 383.338 539.71 375.302 534.261 369.58L534.256 369.575L422.852 255.901L422.851 255.9C417.924 250.888 409.578 251.257 406.392 257.005L279.455 486.009L279.449 486.02C278.242 488.198 277.022 490.4 276.083 492.544C260.093 526.335 262.355 565.357 279.349 599.282L279.354 599.292L279.796 599.058L279.354 599.293L279.355 599.294L279.357 599.297L279.365 599.312L279.395 599.37L279.511 599.589L279.93 600.378C280.278 601.035 280.747 601.92 281.231 602.835C282.2 604.666 283.226 606.607 283.463 607.067L283.465 607.069C290.943 621.361 300.31 634.936 311.658 647.183L311.659 647.184C323.926 660.365 336.384 673.652 349.601 687.36Z" stroke="url(#paint1_linear_1306_123)"/>
<path opacity="0.7" d="M273.656 76.3342L273.644 76.3227L273.632 76.3119C265.929 69.5395 253.844 70.6781 249.499 78.8501L90.8064 377.312C87.4353 383.653 89.0224 391.662 94.5704 397.289L94.5756 397.294L207.946 509.006L207.947 509.007C212.961 513.932 221.299 513.417 224.384 507.615L347.305 276.43L347.311 276.418C348.48 274.221 349.661 271.998 350.563 269.838C365.961 235.773 363.018 196.796 345.434 163.172L345.429 163.162L344.991 163.404L345.429 163.162L345.429 163.162L345.428 163.161L345.426 163.157L345.418 163.143L345.387 163.086L345.267 162.869L344.835 162.087C344.475 161.436 343.991 160.559 343.491 159.653C342.49 157.839 341.43 155.916 341.185 155.46L341.184 155.458C333.457 141.3 323.855 127.89 312.295 115.842L312.294 115.841C299.798 102.877 287.11 89.8094 273.656 76.3342ZM354.934 686.697L354.945 686.708L354.957 686.719C362.66 693.492 374.746 692.353 379.091 684.181L537.783 385.719C541.154 379.378 539.567 371.369 534.019 365.743L534.014 365.738L420.643 254.025L420.643 254.025C415.629 249.099 407.291 249.614 404.206 255.417L281.285 486.601L281.278 486.613C280.11 488.811 278.928 491.034 278.027 493.194C262.629 527.259 265.571 566.236 283.155 599.859L283.161 599.869L283.598 599.627L283.161 599.869L283.161 599.87L283.163 599.874L283.171 599.889L283.203 599.946L283.323 600.163L283.755 600.944C284.114 601.595 284.599 602.472 285.098 603.378C286.099 605.192 287.159 607.115 287.405 607.571L287.406 607.573C295.132 621.732 304.735 635.142 316.295 647.189L316.296 647.19C328.791 660.154 341.479 673.222 354.934 686.697Z" stroke="url(#paint2_linear_1306_123)"/>
<path opacity="0.7" d="M268.336 77.0901L268.324 77.0788L268.312 77.0683C260.492 70.4313 248.429 71.7807 244.227 80.0272L90.7674 381.214C87.5074 387.612 89.234 395.592 94.8794 401.121L94.8847 401.126L210.188 510.843L210.188 510.843C215.288 515.681 223.615 515.02 226.599 509.165L345.466 275.871L345.472 275.858C346.602 273.641 347.745 271.397 348.608 269.222C363.41 234.894 359.787 195.974 341.619 162.662L341.614 162.652L341.18 162.902L341.614 162.652L341.613 162.652L341.613 162.651L341.611 162.647L341.603 162.633L341.57 162.576L341.446 162.362L341.001 161.588C340.63 160.943 340.131 160.074 339.615 159.177C338.583 157.382 337.489 155.477 337.236 155.026L337.235 155.024C329.262 141.002 319.427 127.762 307.659 115.918L307.658 115.917C294.938 103.173 282.024 90.3285 268.336 77.0901ZM360.254 685.941L360.266 685.953L360.278 685.963C368.098 692.6 380.161 691.251 384.363 683.004L537.823 381.818C541.083 375.42 539.356 367.439 533.711 361.91L533.705 361.905L418.402 252.189L418.402 252.188C413.302 247.351 404.975 248.011 401.991 253.867L283.124 487.162L283.118 487.173C281.988 489.391 280.845 491.635 279.981 493.81C265.181 528.138 268.803 567.058 286.971 600.369L286.976 600.379L287.41 600.13L286.976 600.379L286.977 600.381L286.979 600.384L286.987 600.399L287.02 600.455L287.144 600.67L287.589 601.444C287.96 602.088 288.459 602.957 288.975 603.854C290.007 605.65 291.101 607.555 291.354 608.006L291.355 608.008C299.328 622.03 309.163 635.27 320.931 647.114L320.932 647.115C333.652 659.859 346.566 672.703 360.254 685.941Z" stroke="url(#paint3_linear_1306_123)"/>
<path opacity="0.7" d="M263.03 77.9386L263.018 77.9275L263.006 77.9172C255.071 71.4177 243.033 72.9774 238.976 81.2961L90.7961 385.115C87.6483 391.569 89.5139 399.518 95.255 404.948L95.2603 404.952L212.461 512.64L212.461 512.641C217.644 517.388 225.959 516.583 228.84 510.676L343.617 275.343L343.623 275.33C344.714 273.093 345.818 270.83 346.643 268.641C360.843 234.059 356.542 195.208 337.796 162.219L337.79 162.209L337.361 162.466L337.79 162.209L337.79 162.208L337.789 162.208L337.787 162.204L337.778 162.19L337.745 162.134L337.617 161.921L337.159 161.155C336.777 160.517 336.262 159.657 335.731 158.769C334.667 156.992 333.541 155.107 333.28 154.66L333.278 154.658C325.063 140.777 314.998 127.711 303.024 116.074L303.023 116.073C290.083 103.553 276.947 90.9361 263.03 77.9386ZM365.56 685.093L365.572 685.104L365.584 685.114C373.519 691.614 385.557 690.054 389.614 681.736L537.794 377.917C540.942 371.462 539.076 363.514 533.335 358.084L533.33 358.079L416.129 250.391L416.129 250.391C410.946 245.643 402.631 246.449 399.75 252.356L284.972 487.69L284.966 487.701C283.875 489.939 282.772 492.202 281.946 494.392C267.747 528.973 272.048 567.824 290.794 600.813L290.8 600.823L291.229 600.566L290.8 600.823L290.801 600.824L290.803 600.828L290.812 600.842L290.845 600.898L290.972 601.11L291.431 601.877C291.813 602.514 292.328 603.374 292.859 604.262C293.923 606.04 295.049 607.925 295.31 608.372L295.312 608.374C303.527 622.254 313.592 635.321 325.566 646.957L325.566 646.958C338.507 659.479 351.643 672.095 365.56 685.093Z" stroke="url(#paint4_linear_1306_123)"/>
<path opacity="0.7" d="M257.74 78.8796L257.727 78.8687L257.715 78.8586C249.668 72.4985 237.659 74.2681 233.747 82.6563L90.8925 389.015C87.8578 395.523 89.8619 403.438 95.6968 408.767L95.7022 408.772L214.764 514.398L214.765 514.398C220.03 519.054 228.329 518.104 231.106 512.148L341.759 274.847L341.765 274.835C342.817 272.579 343.881 270.297 344.668 268.093C358.262 233.269 353.284 194.499 333.965 161.842L333.958 161.832L333.534 162.097L333.958 161.832L333.958 161.832L333.958 161.831L333.955 161.827L333.947 161.813L333.912 161.758L333.781 161.548L333.309 160.79C332.916 160.158 332.386 159.308 331.84 158.429C330.745 156.671 329.586 154.805 329.317 154.363L329.316 154.361C320.859 140.626 310.568 127.737 298.393 116.311L298.392 116.311C285.235 104.018 271.881 91.6322 257.74 78.8796ZM370.849 684.152L370.862 684.163L370.874 684.173C378.921 690.533 390.93 688.764 394.842 680.375L537.696 374.016C540.731 367.508 538.727 359.593 532.892 354.265L532.887 354.26L413.825 248.634L413.824 248.634C408.559 243.977 400.26 244.928 397.483 250.884L286.829 488.185L286.824 488.197C285.772 490.453 284.708 492.735 283.921 494.939C270.327 529.763 275.305 568.533 294.625 601.19L294.631 601.2L295.055 600.935L294.631 601.2L294.631 601.201L294.634 601.204L294.642 601.218L294.677 601.274L294.808 601.484L295.28 602.242C295.673 602.873 296.203 603.724 296.749 604.602C297.844 606.361 299.003 608.226 299.272 608.669L299.273 608.671C307.73 622.406 318.021 635.295 330.196 646.72L330.197 646.721C343.354 659.014 356.708 671.399 370.849 684.152Z" stroke="url(#paint5_linear_1306_123)"/>
<path opacity="0.7" d="M252.467 79.9125L252.454 79.9018L252.442 79.8919C244.285 73.6733 232.309 75.6522 228.544 84.1074L91.0576 392.913C88.137 399.473 90.2789 407.352 96.2059 412.578L96.2114 412.582L217.099 516.114L217.099 516.115C222.445 520.678 230.726 519.583 233.399 513.579L339.894 274.384L339.899 274.372C340.912 272.098 341.936 269.798 342.684 267.58C355.668 232.524 350.014 193.847 330.128 161.532L330.122 161.522L329.702 161.794L330.122 161.522L330.121 161.522L330.121 161.521L330.119 161.517L330.11 161.503L330.074 161.449L329.939 161.241L329.454 160.491C329.05 159.867 328.506 159.026 327.944 158.157C326.819 156.417 325.628 154.573 325.351 154.135L325.349 154.133C316.654 140.548 306.139 127.841 293.767 116.629L293.766 116.628C280.397 104.567 266.828 92.4163 252.467 79.9125ZM376.123 683.119L376.135 683.129L376.148 683.139C384.304 689.358 396.281 687.379 400.045 678.924L537.532 370.118C540.452 363.558 538.311 355.679 532.384 350.454L532.378 350.449L411.491 246.917L411.49 246.917C406.145 242.353 397.863 243.448 395.19 249.452L288.695 488.648L288.69 488.661C287.677 490.934 286.653 493.234 285.905 495.452C272.921 530.508 278.575 569.185 298.461 601.499L298.468 601.509L298.887 601.237L298.468 601.509L298.468 601.51L298.471 601.514L298.48 601.528L298.515 601.582L298.65 601.79L299.135 602.54L299.941 603.786L300.646 604.874C301.77 606.614 302.962 608.459 303.239 608.896L303.24 608.898C311.935 622.483 322.45 635.191 334.822 646.402L334.823 646.403C348.192 658.464 361.761 670.615 376.123 683.119Z" stroke="url(#paint6_linear_1306_123)"/>
<path opacity="0.7" d="M247.212 81.0374L247.2 81.027L247.187 81.0174C238.923 74.942 226.983 77.1296 223.367 85.6492L91.2904 396.807C88.4847 403.417 90.7638 411.258 96.7811 416.379L96.7866 416.384L219.462 517.79L219.463 517.79C224.887 522.26 233.148 521.021 235.716 514.971L338.02 273.953L338.025 273.941C338.998 271.65 339.982 269.332 340.691 267.102C353.062 231.825 346.734 193.252 326.286 161.289L326.28 161.279L325.865 161.558L326.28 161.279L326.28 161.279L326.279 161.278L326.277 161.275L326.267 161.261L326.231 161.207L326.093 161.001L325.594 160.26C325.18 159.643 324.621 158.811 324.044 157.953C322.889 156.233 321.665 154.409 321.381 153.977L321.379 153.975C312.448 140.543 301.713 128.022 289.147 117.028L289.147 117.027C275.569 105.201 261.79 93.2888 247.212 81.0374ZM381.377 681.994L381.389 682.004L381.402 682.014C389.666 688.089 401.606 685.902 405.222 677.382L537.299 366.224C540.105 359.614 537.826 351.774 531.808 346.652L531.803 346.647L409.127 245.241L409.126 245.241C403.702 240.771 395.441 242.01 392.873 248.06L290.569 489.079L290.564 489.091C289.591 491.382 288.607 493.7 287.898 495.93C275.527 531.207 281.856 569.779 302.303 601.742L302.309 601.752L302.724 601.473L302.309 601.752L302.31 601.753L302.313 601.756L302.322 601.77L302.358 601.824L302.497 602.03L302.995 602.771C303.231 603.122 303.513 603.542 303.819 603.997L304.546 605.079C305.701 606.798 306.924 608.622 307.209 609.054L307.21 609.056C316.141 622.488 326.876 635.01 339.442 646.004L339.443 646.004C353.02 657.83 366.799 669.742 381.377 681.994Z" stroke="url(#paint7_linear_1306_123)"/>
<path opacity="0.7" d="M241.979 82.2542L241.966 82.2439L241.953 82.2345C233.585 76.3043 221.684 78.7 218.217 87.2814L91.5915 400.697C88.9016 407.355 91.3171 415.154 97.4229 420.17L97.4285 420.175L221.855 519.424L221.856 519.425C227.357 523.799 235.596 522.416 238.057 516.322L336.14 273.556L336.145 273.544C337.077 271.236 338.02 268.901 338.691 266.659C350.444 231.171 343.443 192.715 322.441 161.113L322.435 161.104L322.025 161.39L322.435 161.104L322.434 161.104L322.434 161.103L322.431 161.099L322.422 161.086L322.385 161.032L322.243 160.829L321.732 160.097C321.306 159.487 320.733 158.665 320.141 157.817C318.956 156.118 317.701 154.316 317.409 153.888L317.407 153.886C308.243 140.613 297.292 128.28 284.536 117.507L284.535 117.506C270.753 105.919 256.768 94.2492 241.979 82.2542ZM386.611 680.777L386.623 680.788L386.637 680.797C395.005 686.727 406.905 684.332 410.372 675.75L536.998 362.335C539.688 355.677 537.273 347.877 531.167 342.861L531.161 342.857L406.734 243.607L406.734 243.607C401.232 239.232 392.994 240.616 390.532 246.709L292.45 489.476L292.445 489.488C291.513 491.796 290.569 494.131 289.899 496.373C278.146 531.861 285.147 570.317 306.148 601.918L306.155 601.928L306.565 601.641L306.155 601.928L306.156 601.929L306.158 601.932L306.168 601.946L306.205 601.999L306.347 602.202L306.858 602.935C307.284 603.544 307.857 604.366 308.449 605.215C309.634 606.914 310.889 608.716 311.181 609.143L311.182 609.145C320.346 622.419 331.298 634.752 344.054 645.525L344.055 645.525C357.837 657.113 371.822 668.782 386.611 680.777Z" stroke="url(#paint8_linear_1306_123)"/>
<path opacity="0.7" d="M236.767 83.5618L236.754 83.5518L236.741 83.5427C228.27 77.7594 216.413 80.3624 213.097 89.003L91.9598 404.581C89.3865 411.285 91.9378 419.041 98.1302 423.949L98.1359 423.954L224.276 521.017L224.276 521.017C229.853 525.295 238.066 523.768 240.421 517.632L334.252 273.191L334.257 273.179C335.149 270.855 336.051 268.504 336.682 266.251C347.814 230.563 340.144 192.235 318.593 161.005L318.586 160.995L318.182 161.289L318.586 160.995L318.586 160.995L318.586 160.994L318.583 160.991L318.573 160.977L318.535 160.925L318.39 160.724L317.866 160.001C317.43 159.399 316.842 158.587 316.235 157.749C315.021 156.071 313.735 154.291 313.435 153.868L313.434 153.866C304.04 140.755 292.874 128.615 279.932 118.066L279.931 118.066C265.949 106.721 251.763 95.297 236.767 83.5618ZM391.822 679.47L391.835 679.48L391.848 679.489C400.319 685.272 412.176 682.669 415.492 674.029L536.629 358.451C539.203 351.747 536.651 343.991 530.459 339.082L530.453 339.078L404.313 242.015L404.313 242.014C398.736 237.737 390.523 239.264 388.168 245.399L294.337 489.841L294.332 489.854C293.44 492.177 292.538 494.528 291.907 496.782C280.775 532.469 288.446 570.797 309.996 602.027L310.003 602.036L310.407 601.743L310.003 602.036L310.003 602.037L310.006 602.041L310.016 602.054L310.054 602.107L310.199 602.308L310.723 603.031L311.562 604.19L312.354 605.283C313.568 606.961 314.854 608.741 315.154 609.163L315.155 609.165C324.549 622.277 335.715 634.416 348.657 644.965L348.658 644.966C362.64 656.311 376.826 667.735 391.822 679.47Z" stroke="url(#paint9_linear_1306_123)"/>
<path opacity="0.7" d="M231.579 84.9603L231.566 84.9505L231.552 84.9416C222.982 79.307 211.173 82.1166 208.007 90.8137L92.3962 408.458C89.9402 415.205 92.6265 422.916 98.9036 427.715L98.9094 427.72L226.724 522.567L226.725 522.567C232.375 526.747 240.56 525.077 242.808 518.901L332.358 272.859L332.363 272.847C333.214 270.508 334.075 268.142 334.667 265.878C345.174 230.001 336.836 191.813 314.744 160.963L314.737 160.954L314.337 161.255L314.737 160.954L314.737 160.954L314.736 160.953L314.734 160.95L314.724 160.936L314.685 160.884L314.536 160.686L313.999 159.972C313.553 159.378 312.951 158.576 312.33 157.749C311.087 156.092 309.769 154.335 309.463 153.918L309.461 153.916C299.839 140.97 288.464 129.028 275.34 118.706L275.339 118.706C261.161 107.606 246.777 96.4319 231.579 84.9603ZM397.01 678.071L397.023 678.081L397.037 678.09C405.607 683.724 417.416 680.915 420.582 672.218L536.193 354.574C538.649 347.826 535.962 340.116 529.685 335.316L529.679 335.312L401.865 240.465L401.864 240.464C396.214 236.285 388.029 237.955 385.781 244.13L296.23 490.173L296.226 490.185C295.375 492.524 294.513 494.89 293.921 497.155C283.415 533.031 291.753 571.219 313.845 602.068L313.852 602.077L314.251 601.777L313.852 602.077L313.853 602.078L313.855 602.082L313.865 602.095L313.904 602.147L314.053 602.345L314.589 603.059C315.036 603.654 315.638 604.455 316.259 605.283C317.502 606.939 318.82 608.696 319.126 609.113L319.128 609.115C328.749 622.061 340.125 634.004 353.249 644.325L353.25 644.326C367.428 655.425 381.811 666.6 397.01 678.071Z" stroke="url(#paint10_linear_1306_123)"/>
<defs>
<linearGradient id="paint0_linear_1306_123" x1="89.5715" y1="70.7443" x2="561.948" y2="88.6884" gradientUnits="userSpaceOnUse">
<stop stop-color="#4895FF"/>
<stop offset="0.317708" stop-color="#00FFCE"/>
<stop offset="0.671875" stop-color="#847BE7"/>
<stop offset="0.890625" stop-color="#D629F7"/>
<stop offset="1" stop-color="#FF00FF"/>
</linearGradient>
<linearGradient id="paint1_linear_1306_123" x1="84.1816" y1="74.7132" x2="556.799" y2="84.4107" gradientUnits="userSpaceOnUse">
<stop stop-color="#4895FF"/>
<stop offset="0.317708" stop-color="#00FFCE"/>
<stop offset="0.671875" stop-color="#847BE7"/>
<stop offset="0.890625" stop-color="#D629F7"/>
<stop offset="1" stop-color="#FF00FF"/>
</linearGradient>
<linearGradient id="paint2_linear_1306_123" x1="78.8625" y1="78.7761" x2="551.577" y2="80.2239" gradientUnits="userSpaceOnUse">
<stop stop-color="#4895FF"/>
<stop offset="0.317708" stop-color="#00FFCE"/>
<stop offset="0.671875" stop-color="#847BE7"/>
<stop offset="0.890625" stop-color="#D629F7"/>
<stop offset="1" stop-color="#FF00FF"/>
</linearGradient>
<linearGradient id="paint3_linear_1306_123" x1="73.6152" y1="82.9313" x2="546.283" y2="76.129" gradientUnits="userSpaceOnUse">
<stop stop-color="#4895FF"/>
<stop offset="0.317708" stop-color="#00FFCE"/>
<stop offset="0.671875" stop-color="#847BE7"/>
<stop offset="0.890625" stop-color="#D629F7"/>
<stop offset="1" stop-color="#FF00FF"/>
</linearGradient>
<linearGradient id="paint4_linear_1306_123" x1="68.4409" y1="87.1773" x2="540.918" y2="72.1271" gradientUnits="userSpaceOnUse">
<stop stop-color="#4895FF"/>
<stop offset="0.317708" stop-color="#00FFCE"/>
<stop offset="0.671875" stop-color="#847BE7"/>
<stop offset="0.890625" stop-color="#D629F7"/>
<stop offset="1" stop-color="#FF00FF"/>
</linearGradient>
<linearGradient id="paint5_linear_1306_123" x1="63.3411" y1="91.513" x2="535.483" y2="68.2193" gradientUnits="userSpaceOnUse">
<stop stop-color="#4895FF"/>
<stop offset="0.317708" stop-color="#00FFCE"/>
<stop offset="0.671875" stop-color="#847BE7"/>
<stop offset="0.890625" stop-color="#D629F7"/>
<stop offset="1" stop-color="#FF00FF"/>
</linearGradient>
<linearGradient id="paint6_linear_1306_123" x1="58.3184" y1="95.9367" x2="529.982" y2="64.4067" gradientUnits="userSpaceOnUse">
<stop stop-color="#4895FF"/>
<stop offset="0.317708" stop-color="#00FFCE"/>
<stop offset="0.671875" stop-color="#847BE7"/>
<stop offset="0.890625" stop-color="#D629F7"/>
<stop offset="1" stop-color="#FF00FF"/>
</linearGradient>
<linearGradient id="paint7_linear_1306_123" x1="53.3733" y1="100.448" x2="524.415" y2="60.691" gradientUnits="userSpaceOnUse">
<stop stop-color="#4895FF"/>
<stop offset="0.317708" stop-color="#00FFCE"/>
<stop offset="0.671875" stop-color="#847BE7"/>
<stop offset="0.890625" stop-color="#D629F7"/>
<stop offset="1" stop-color="#FF00FF"/>
</linearGradient>
<linearGradient id="paint8_linear_1306_123" x1="48.5081" y1="105.044" x2="518.784" y2="57.0731" gradientUnits="userSpaceOnUse">
<stop stop-color="#4895FF"/>
<stop offset="0.317708" stop-color="#00FFCE"/>
<stop offset="0.671875" stop-color="#847BE7"/>
<stop offset="0.890625" stop-color="#D629F7"/>
<stop offset="1" stop-color="#FF00FF"/>
</linearGradient>
<linearGradient id="paint9_linear_1306_123" x1="43.7231" y1="109.725" x2="513.091" y2="53.5539" gradientUnits="userSpaceOnUse">
<stop stop-color="#4895FF"/>
<stop offset="0.317708" stop-color="#00FFCE"/>
<stop offset="0.671875" stop-color="#847BE7"/>
<stop offset="0.890625" stop-color="#D629F7"/>
<stop offset="1" stop-color="#FF00FF"/>
</linearGradient>
<linearGradient id="paint10_linear_1306_123" x1="39.021" y1="114.489" x2="507.337" y2="50.1346" gradientUnits="userSpaceOnUse">
<stop stop-color="#4895FF"/>
<stop offset="0.317708" stop-color="#00FFCE"/>
<stop offset="0.671875" stop-color="#847BE7"/>
<stop offset="0.890625" stop-color="#D629F7"/>
<stop offset="1" stop-color="#FF00FF"/>
</linearGradient>
</defs>
</svg>
